<svg xmlns="http://www.w3.org/2000/svg" width="42.2" height="42.2" viewBox="0 0 42.2 42.2">
  <path id="Path_23299" data-name="Path 23299" d="M96.7,5.6a21.123,21.123,0,1,0,14.913,6.187A21.1,21.1,0,0,0,96.7,5.6Zm1.36,4.573a17.314,17.314,0,0,1,1.733.213.861.861,0,0,1-.147,1.71.886.886,0,0,1-.149-.013,15.534,15.534,0,0,0-1.559-.192.861.861,0,0,1,.122-1.718ZM82.991,19.768a.861.861,0,0,1-.74-1.3,17.1,17.1,0,0,1,10.593-7.852.861.861,0,1,1,.409,1.673,15.372,15.372,0,0,0-9.521,7.057.862.862,0,0,1-.742.424Zm24.357,7.8H97.78V37.631a.861.861,0,0,1-1.722,0V27.563H85.986a.861.861,0,1,1,0-1.722H96.057V16.269a.861.861,0,0,1,1.722,0v9.572h9.569a.861.861,0,1,1,0,1.722Z" transform="translate(-75.603 -5.602)" fill="#fd9f00"/>
</svg>
