<svg xmlns="http://www.w3.org/2000/svg" width="5.426" height="9.646" viewBox="0 0 5.426 9.646">
  <g id="Arrow_-_Up_2" data-name="Arrow - Up 2" transform="translate(0 9.646) rotate(-90)">
    <path id="Arrow_-_Up_2-2" data-name="Arrow - Up 2" d="M9.5,5.278a.489.489,0,0,1-.646.049L8.8,5.278,4.823,1.222.847,5.278A.489.489,0,0,1,.2,5.327L.145,5.278A.514.514,0,0,1,.1,4.619l.048-.057L4.472.148A.489.489,0,0,1,5.118.1l.056.049L9.5,4.562A.513.513,0,0,1,9.5,5.278Z" transform="translate(0 0)" fill="#fff"/>
  </g>
</svg>
