<svg xmlns="http://www.w3.org/2000/svg" width="204.87" height="165.099" viewBox="0 0 204.87 165.099">
  <g id="Group_11709" data-name="Group 11709" transform="translate(-11921.557 -6997)">
    <path id="Path_23521" data-name="Path 23521" d="M92.821,183.669l11.137,43.053V178.628c0-.268.014-.535.04-.8.023-.244.061-.483.1-.72,0-.011,0-.022,0-.031a8.307,8.307,0,0,1,.422-1.468l-8.2,2.11a4.912,4.912,0,0,0-3.507,5.949Z" transform="translate(11828.891 6862.329)" fill="#4cc171"/>
    <path id="Path_23522" data-name="Path 23522" d="M507.576,374.392c-.029.15-.057.3-.082.456-.036.234-.068.469-.09.706-.008.078-.012.157-.017.234-.02.289-.037.579-.037.872s.016.61.04.912c0,.045.006.088.009.132q.04.442.115.877c.008.04.016.082.022.123.053.295.116.588.192.877.006.023.012.045.02.068q.112.412.253.812l.037.112c.092.248.194.493.3.736.037.082.073.166.113.248.1.213.208.421.321.625.059.107.12.211.182.317.1.161.2.32.3.478.087.132.178.259.27.386s.2.264.3.393a11.475,11.475,0,1,0-2.216-9.518c-.008.051-.022.1-.031.155Z" transform="translate(11578.935 6748.069)" fill="#4cc171"/>
    <path id="Path_23523" data-name="Path 23523" d="M147.25,441.49h94.407v2.1H147.25Z" transform="translate(11795.989 6702.065)" fill="#4cc171"/>
    <path id="Path_23524" data-name="Path 23524" d="M298.49,320.32h42.933v4.519H298.49Z" transform="translate(11704.828 6775.102)" fill="#4cc171"/>
    <path id="Path_23525" data-name="Path 23525" d="M449.11,320.32h21.6v4.519h-21.6Z" transform="translate(11614.039 6775.102)" fill="#4cc171"/>
    <path id="Path_23526" data-name="Path 23526" d="M475.025,384.27c-.085-.144-.171-.289-.251-.435-.129-.234-.253-.472-.369-.714-.047-.1-.09-.2-.135-.3-.1-.208-.186-.42-.272-.635-.034-.085-.07-.172-.1-.258-.113-.3-.219-.6-.313-.911-.009-.03-.017-.061-.026-.092q-.133-.445-.237-.9l-.037-.158c-.073-.332-.137-.667-.188-1.005l0-.031q-.068-.47-.106-.95c-.006-.078-.012-.154-.017-.23-.022-.331-.037-.661-.037-1s.016-.666.037-.995l.019-.248c.025-.3.057-.594.1-.888,0-.034.008-.07.012-.1.048-.318.109-.633.175-.945.02-.095.043-.189.065-.284.053-.225.113-.448.175-.669.029-.1.056-.208.088-.31.079-.254.166-.5.258-.751.065-.178.137-.354.21-.531.029-.071.06-.143.092-.214a14.747,14.747,0,0,1,1.277-2.373,11.478,11.478,0,1,0,0,16.6c-.076-.113-.143-.233-.214-.349s-.133-.219-.2-.327Z" transform="translate(11609.881 6748.067)" fill="#4cc171"/>
    <path id="Path_23527" data-name="Path 23527" d="M317.628,76.2a4.93,4.93,0,0,0-5.963-3.5L174.558,108.151H325.906Z" transform="translate(11779.528 6924.445)" fill="#4cc171"/>
    <path id="Path_23528" data-name="Path 23528" d="M594.79,313.98v26.711l1.761-.462a4.876,4.876,0,0,0,3.49-5.923Z" transform="translate(11526.229 6778.923)" fill="#4cc171"/>
    <path id="Path_23529" data-name="Path 23529" d="M129.84,225.97H311.06v19H129.84Z" transform="translate(11806.484 6831.972)" fill="#fd9f00"/>
    <path id="Path_23530" data-name="Path 23530" d="M306.165,170.91H134.7a4.326,4.326,0,0,0-.942.1c-.034.008-.07.009-.1.016-.088.02-.175.043-.262.067-.04.016-.081.036-.123.048a4.943,4.943,0,0,0-3.294,3.494s0,0,0,0c-.026.105-.048.213-.067.32-.009.057-.019.116-.026.174-.011.074-.02.147-.028.223-.012.144-.022.29-.022.439V189.3l181.224,0V175.8a4.895,4.895,0,0,0-4.891-4.886Z" transform="translate(11806.488 6865.161)" fill="#fd9f00"/>
    <path id="Path_23531" data-name="Path 23531" d="M129.84,304.835v54.525a4.872,4.872,0,0,0,4.869,4.863h171.46a4.883,4.883,0,0,0,4.891-4.863V282.538l-181.22,0Zm176.409,22.017a14.951,14.951,0,0,1-25.15,10.921,14.953,14.953,0,1,1,0-21.867,14.945,14.945,0,0,1,25.146,10.946Zm-53.055-31.045a1.737,1.737,0,0,1,1.738-1.738h25.08a1.737,1.737,0,0,1,1.738,1.738V303.8a1.737,1.737,0,0,1-1.738,1.738h-25.08a1.737,1.737,0,0,1-1.738-1.738Zm-59.832,0a1.737,1.737,0,0,1,1.738-1.738h46.409a1.737,1.737,0,0,1,1.738,1.738V303.8a1.737,1.737,0,0,1-1.738,1.738H195.1a1.737,1.737,0,0,1-1.738-1.738Zm-60.074,48.137a1.737,1.737,0,0,1,1.738-1.738h97.883a1.737,1.737,0,0,1,1.738,1.738v5.572a1.737,1.737,0,0,1-1.738,1.738l-97.883,0a1.737,1.737,0,0,1-1.738-1.738Z" transform="translate(11806.484 6797.876)" fill="#fd9f00"/>
  </g>
</svg>
