<svg xmlns="http://www.w3.org/2000/svg" width="22" height="22" viewBox="0 0 22 22">
  <g id="Group_11686" data-name="Group 11686" transform="translate(-303 -61)">
    <g id="Group_11727" data-name="Group 11727">
      <path id="Path_23478" data-name="Path 23478" d="M2.845,4.227A8.574,8.574,0,0,0,4.112,6,7.258,7.258,0,0,0,6.12,7.485a.209.209,0,0,0,.174.009.748.748,0,0,0,.241-.177,2.688,2.688,0,0,0,.22-.27c.323-.425.722-.952,1.286-.688.013.006.022.013.034.018L9.958,7.46l.018.013a.848.848,0,0,1,.353.732,1.983,1.983,0,0,1-.276.933,1.911,1.911,0,0,1-.9.8,4.123,4.123,0,0,1-1.116.3,3.785,3.785,0,0,1-1.7-.142,7.562,7.562,0,0,1-1.714-.827L4.57,9.243c-.278-.174-.579-.36-.874-.579A10.967,10.967,0,0,1,.8,5.374a5.343,5.343,0,0,1-.75-3.381A2.426,2.426,0,0,1,.87.452,2.2,2.2,0,0,1,2.507.015.236.236,0,0,1,2.7.136L3.9,2.176a.638.638,0,0,1,.1.683,1.326,1.326,0,0,1-.462.517c-.065.055-.142.112-.224.171-.27.2-.577.422-.472.688l0-.007Z" transform="translate(309.001 66.997)" fill="#fff"/>
      <g id="Ellipse_2359" data-name="Ellipse 2359" transform="translate(303 61)" fill="none" stroke="#fff" stroke-width="0.5">
        <circle cx="11" cy="11" r="11" stroke="none"/>
        <circle cx="11" cy="11" r="10.75" fill="none"/>
      </g>
    </g>
  </g>
</svg>
