<svg xmlns="http://www.w3.org/2000/svg" width="14.601" height="12.68" viewBox="0 0 14.601 12.68">
  <g id="Group_2860" data-name="Group 2860" transform="translate(0 0)" opacity="0.5">
    <path id="Path_9054" data-name="Path 9054" d="M97.267,51.41H94.439V50.7a1.987,1.987,0,0,0-1.983-1.983H90.152A1.987,1.987,0,0,0,88.169,50.7v.707H85.326A1.322,1.322,0,0,0,84,52.731V54.5a.413.413,0,0,0,.415.415h6.04v-.323a.275.275,0,0,1,.277-.277h1.137a.275.275,0,0,1,.277.277v.323h6.04A.413.413,0,0,0,98.6,54.5V52.747a1.338,1.338,0,0,0-1.337-1.337ZM89.644,50.7a.512.512,0,0,1,.507-.507h2.305a.512.512,0,0,1,.507.507v.707h-3.32Z" transform="translate(-84.004 -48.72)" fill="#fd9f00"/>
    <path id="Path_9055" data-name="Path 9055" d="M118.3,302.4h-5.471a.829.829,0,0,1-1.644,0H105.7a.413.413,0,0,0-.415.415V306.8a1.322,1.322,0,0,0,1.322,1.322h10.774a1.338,1.338,0,0,0,1.337-1.337v-3.965a.413.413,0,0,0-.415-.415Z" transform="translate(-104.697 -295.438)" fill="#fd9f00"/>
  </g>
</svg>
