<svg xmlns="http://www.w3.org/2000/svg" width="10.355" height="10.355" viewBox="0 0 10.355 10.355">
  <g id="Group_2878" data-name="Group 2878" transform="translate(-8466.289 -4971.169)">
    <path id="Path_9203" data-name="Path 9203" d="M241.529,169.09a2.439,2.439,0,1,0,2.439,2.439A2.442,2.442,0,0,0,241.529,169.09Zm0,4.493a2.054,2.054,0,1,1,2.054-2.054A2.056,2.056,0,0,1,241.529,173.583Z" transform="translate(8229.938 4804.818)" fill="#717171"/>
    <path id="Path_9204" data-name="Path 9204" d="M124.9,49.528h-.847a4.34,4.34,0,0,0-4.138-4.138v-.847h-.385v.847a4.341,4.341,0,0,0-4.138,4.138h-.847v.385h.847a4.34,4.34,0,0,0,4.138,4.138V54.9h.385v-.847a4.341,4.341,0,0,0,4.138-4.138h.847v-.385Zm-4.985,4.138v-.724h-.385v.724a3.956,3.956,0,0,1-3.753-3.753h.724v-.385h-.724a3.956,3.956,0,0,1,3.753-3.753V46.5h.385v-.724a3.956,3.956,0,0,1,3.753,3.753h-.724v.385h.724A3.956,3.956,0,0,1,119.91,53.666Z" transform="translate(8351.749 4926.626)" fill="#717171"/>
    <path id="Path_9205" data-name="Path 9205" d="M311.915,241.05a.857.857,0,1,0,.856.856A.857.857,0,0,0,311.915,241.05Zm0,1.328a.472.472,0,1,1,.472-.472A.472.472,0,0,1,311.915,242.378Z" transform="translate(8159.552 4734.441)" fill="#717171"/>
  </g>
</svg>
