<svg xmlns="http://www.w3.org/2000/svg" width="12.39" height="14.635" viewBox="0 0 12.39 14.635">
  <g id="Group_2873" data-name="Group 2873" transform="translate(-8300.354 -5612.819)" opacity="0.5">
    <path id="Path_9134" data-name="Path 9134" d="M137.049,19.646l-5.413-5.413a.782.782,0,0,0-1.11,0l-5.413,5.413a.774.774,0,0,0,1.1,1.1l.663-.663V24.4a.927.927,0,0,0,.756.91,3.535,3.535,0,0,1,6.909.015.927.927,0,0,0,.756-.91V20.093l.663.663a.782.782,0,0,0,1.11,0,.827.827,0,0,0-.016-1.11Z" transform="translate(8175.474 5598.817)" fill="#fd9f00"/>
    <path id="Path_9135" data-name="Path 9135" d="M258.513,357.28a2.591,2.591,0,1,0,2.591,2.591A2.587,2.587,0,0,0,258.513,357.28Zm.8,3.732a.941.941,0,0,1-.555.262v.308a.066.066,0,0,1-.062.062h-.308a.066.066,0,0,1-.062-.062v-.308a1.458,1.458,0,0,1-.786-.386c-.031-.015-.031-.062,0-.092l.262-.308c.015-.031.062-.031.092,0a1.323,1.323,0,0,0,.308.2,1.136,1.136,0,0,0,.37.077.393.393,0,0,0,.247-.077.22.22,0,0,0,.092-.185.116.116,0,0,0-.015-.077c0-.031-.015-.046-.031-.077-.015-.015-.031-.046-.062-.062a.515.515,0,0,0-.093-.046,1.073,1.073,0,0,0-.123-.046c-.046-.015-.093-.031-.154-.046l-.139-.046a1.46,1.46,0,0,0-.139-.046,1.074,1.074,0,0,1-.123-.046.389.389,0,0,1-.108-.062.674.674,0,0,1-.108-.062c-.031-.031-.062-.046-.093-.077a.412.412,0,0,1-.077-.092.386.386,0,0,0-.062-.108.346.346,0,0,0-.016-.139c0-.046-.015-.093-.015-.139a.733.733,0,0,1,.2-.54.941.941,0,0,1,.555-.262v-.324a.066.066,0,0,1,.062-.062h.308a.066.066,0,0,1,.062.062v.339a1.831,1.831,0,0,1,.663.278c.031.015.031.062.015.093l-.247.308a.054.054,0,0,1-.077.015,1.031,1.031,0,0,0-.586-.2.391.391,0,0,0-.247.062.194.194,0,0,0-.093.17.2.2,0,0,0,.108.185,1.243,1.243,0,0,0,.339.139c.077.015.123.046.185.062a.647.647,0,0,1,.154.062.6.6,0,0,1,.139.062.539.539,0,0,1,.123.077c.046.031.077.062.108.077a.41.41,0,0,1,.077.093.309.309,0,0,1,.062.123.452.452,0,0,1,.031.139.58.58,0,0,1,.015.17.73.73,0,0,1-.2.556Z" transform="translate(8048.042 5264.993)" fill="#fd9f00"/>
  </g>
</svg>
