<svg xmlns="http://www.w3.org/2000/svg" width="14.935" height="14.753" viewBox="0 0 14.935 14.753">
  <g id="Group_2863" data-name="Group 2863" transform="translate(-8441.435 -5612.819)" opacity="0.5">
    <path id="Path_9174" data-name="Path 9174" d="M335.44,9.519h.779V10.3h-.779Z" transform="translate(8113.066 5603.299)" fill="#fd9f00"/>
    <path id="Path_9175" data-name="Path 9175" d="M335.44,521.92h.779v.779h-.779Z" transform="translate(8113.066 5104.873)" fill="#fd9f00"/>
    <path id="Path_9176" data-name="Path 9176" d="M147.84,439.6h.779v.779h-.779Z" transform="translate(8295.551 5184.947)" fill="#fd9f00"/>
    <path id="Path_9177" data-name="Path 9177" d="M515.2,439.6h.779v.779H515.2Z" transform="translate(7938.208 5184.947)" fill="#fd9f00"/>
    <path id="Path_9178" data-name="Path 9178" d="M147.84,87.922h.779V88.7h-.779Z" transform="translate(8295.551 5527.035)" fill="#fd9f00"/>
    <path id="Path_9179" data-name="Path 9179" d="M515.2,87.922h.779V88.7H515.2Z" transform="translate(7938.208 5527.035)" fill="#fd9f00"/>
    <path id="Path_9180" data-name="Path 9180" d="M76.16,263.2h.779v.779H76.16Z" transform="translate(8365.275 5356.537)" fill="#fd9f00"/>
    <path id="Path_9181" data-name="Path 9181" d="M595.28,263.2h.779v.779h-.779Z" transform="translate(7860.312 5356.537)" fill="#fd9f00"/>
    <path id="Path_9182" data-name="Path 9182" d="M89.023,134.444a6.9,6.9,0,0,0-1.084,2.917l-.015.092h.458l.015-.076a6.907,6.907,0,0,1,1.115-2.856l.092-.122h-.535Z" transform="translate(8353.833 5481.826)" fill="#fd9f00"/>
    <path id="Path_9183" data-name="Path 9183" d="M87.818,308.636l-.015-.076h-.443l.015.092a7.2,7.2,0,0,0,1.069,2.993l.031.031h.535l-.092-.122a6.927,6.927,0,0,1-1.1-2.917Z" transform="translate(8354.382 5312.415)" fill="#fd9f00"/>
    <path id="Path_9184" data-name="Path 9184" d="M552.227,138.483l.015.076h.458l-.015-.092a7.336,7.336,0,0,0-1.084-2.917l-.031-.031h-.535l.092.122a6.943,6.943,0,0,1,1.1,2.841Z" transform="translate(7903.35 5480.735)" fill="#fd9f00"/>
    <path id="Path_9185" data-name="Path 9185" d="M552.808,308.56l-.015.076a6.851,6.851,0,0,1-1.1,2.917l-.092.137h.535l.031-.031a6.921,6.921,0,0,0,1.069-2.993l.015-.092Z" transform="translate(7902.799 5312.414)" fill="#fd9f00"/>
    <path id="Path_9186" data-name="Path 9186" d="M383.639,18.875l.015.015h.764l-.2-.153a6.963,6.963,0,0,0-3.329-1.359l-.092-.015v.458l.076.015a6.487,6.487,0,0,1,2.764,1.039Z" transform="translate(8068.945 5595.669)" fill="#fd9f00"/>
    <path id="Path_9187" data-name="Path 9187" d="M185.557,18.734l-.2.153h.764l.015-.015a6.611,6.611,0,0,1,2.795-1.039l.076-.015v-.458l-.092.015a7.072,7.072,0,0,0-3.36,1.359Z" transform="translate(8259.055 5595.673)" fill="#fd9f00"/>
    <path id="Path_9188" data-name="Path 9188" d="M383.171,485.537a6.858,6.858,0,0,1-2.856,1.084l-.076.015v.458l.092-.015a7.148,7.148,0,0,0,3.406-1.4l.2-.153Z" transform="translate(8069.489 5140.278)" fill="#fd9f00"/>
    <path id="Path_9189" data-name="Path 9189" d="M183.9,485.537l-.031-.015h-.748l.2.153a7.2,7.2,0,0,0,3.421,1.4l.092.015v-.458l-.076-.03a6.967,6.967,0,0,1-2.856-1.069Z" transform="translate(8261.234 5140.278)" fill="#fd9f00"/>
    <path id="Path_9190" data-name="Path 9190" d="M210.113,136.268l-.6.229a3.193,3.193,0,0,0-.809-.825l.29-.687a.261.261,0,0,0,0-.153.184.184,0,0,0-.107-.107l-.916-.4a.191.191,0,0,0-.26.107l-.305.7a3.375,3.375,0,0,0-1.038-.015l-.26-.641a.191.191,0,0,0-.26-.107l-.932.367a.191.191,0,0,0-.107.26l.244.626a3.027,3.027,0,0,0-.779.748l-.748-.321a.191.191,0,0,0-.26.107l-.4.916a.261.261,0,0,0,0,.153.185.185,0,0,0,.107.107l.718.305a3.374,3.374,0,0,0-.031,1.176l-.6.229a.191.191,0,0,0-.107.26l.367.932a.191.191,0,0,0,.26.107l.6-.229a3.481,3.481,0,0,0,.733.764l-.29.657a.261.261,0,0,0,0,.153.185.185,0,0,0,.107.107l.916.4a.261.261,0,0,0,.153,0,.184.184,0,0,0,.107-.107l.275-.641a3.122,3.122,0,0,0,1.191.015l.214.535a.191.191,0,0,0,.26.107l.932-.367a.191.191,0,0,0,.107-.26l-.214-.55a3.136,3.136,0,0,0,.809-.809l.55.229a.261.261,0,0,0,.153,0,.185.185,0,0,0,.107-.107l.4-.916a.261.261,0,0,0,0-.153.185.185,0,0,0-.107-.107l-.565-.244a3.143,3.143,0,0,0,0-1.069l.6-.229a.191.191,0,0,0,.107-.26l-.367-.916a.182.182,0,0,0-.245-.076Zm-2.52,3.879a1.974,1.974,0,1,1,1.1-2.566A1.982,1.982,0,0,1,207.593,140.147Z" transform="translate(8242.027 5481.912)" fill="#fd9f00"/>
  </g>
</svg>
