<svg xmlns="http://www.w3.org/2000/svg" width="11.623" height="11.622" viewBox="0 0 11.623 11.622">
  <g id="Group_11691" data-name="Group 11691" transform="translate(-172.189 -796.524)">
    <path id="Path_23489" data-name="Path 23489" d="M266.776,196h3.487a.832.832,0,0,1,.775.775v3.487a.775.775,0,0,1-.775.775h-3.487a.832.832,0,0,1-.775-.775v-3.487A.775.775,0,0,1,266.776,196Z" transform="translate(-93.813 600.524)" fill="#fdcd7d"/>
    <path id="Path_23490" data-name="Path 23490" d="M361.976,196h3.487a.832.832,0,0,1,.775.775v3.487a.775.775,0,0,1-.775.775h-3.487a.832.832,0,0,1-.775-.775v-3.487A.775.775,0,0,1,361.976,196Z" transform="translate(-182.426 600.524)" fill="#fdcd7d"/>
    <path id="Path_23491" data-name="Path 23491" d="M266.776,291.2h3.487a.832.832,0,0,1,.775.775v3.487a.775.775,0,0,1-.775.775h-3.487a.832.832,0,0,1-.775-.775v-3.487A.775.775,0,0,1,266.776,291.2Z" transform="translate(-93.813 511.911)" fill="#fdcd7d"/>
    <path id="Path_23492" data-name="Path 23492" d="M361.976,291.2h3.487a.832.832,0,0,1,.775.775v3.487a.775.775,0,0,1-.775.775h-3.487a.832.832,0,0,1-.775-.775v-3.487A.775.775,0,0,1,361.976,291.2Z" transform="translate(-182.426 511.911)" fill="#fdcd7d"/>
  </g>
</svg>
