<?xml version="1.0" encoding="utf-8"?>
<!-- Created by UniConvertor 2.0rc5 (https://sk1project.net/) -->
<svg xmlns="http://www.w3.org/2000/svg" height="344.0px" width="344.0px" version="1.1" xmlns:xlink="http://www.w3.org/1999/xlink" id="91d78a70-e8eb-11ed-9bc4-0242ac130007">

<g>
	<g>
		<g>
			<path style="fill:none;" d="M 230.0,159.0 C 230.0,192.1315 202.9076,219.0 169.5,219.0 136.0924,219.0 109.0,192.1315 109.0,159.0 109.0,125.8685 136.0924,99.0 169.5,99.0 202.9076,99.0 230.0,125.8685 230.0,159.0 Z" />
			<path style="stroke:#fd9f00;stroke-width:1.0;stroke-miterlimit:4.0;fill:none;" d="M 229.5,159.0 C 229.5,191.8554 202.6315,218.5 169.5,218.5 136.3685,218.5 109.5,191.8554 109.5,159.0 109.5,126.1446 136.3685,99.5 169.5,99.5 202.6315,99.5 229.5,126.1446 229.5,159.0 Z" />
		</g>
		<g>
			<path style="fill:none;" d="M 269.0,161.5 C 269.0,216.443 224.443,261.0 169.5,261.0 114.557,261.0 70.0,216.443 70.0,161.5 70.0,106.557 114.557,62.0 169.5,62.0 224.443,62.0 269.0,106.557 269.0,161.5 Z" />
			<path style="stroke:#fd9f00;stroke-width:1.0;stroke-miterlimit:4.0;fill:none;" d="M 268.5,161.5 C 268.5,216.1669 224.1669,260.5 169.5,260.5 114.8331,260.5 70.5,216.1669 70.5,161.5 70.5,106.8331 114.8331,62.5 169.5,62.5 224.1669,62.5 268.5,106.8331 268.5,161.5 Z" />
		</g>
		<g>
			<path style="fill:none;" d="M 335.0,169.0 C 335.0,259.0072 262.0072,332.0 172.0,332.0 81.9928,332.0 9.0,259.0072 9.0,169.0 9.0,78.9928 81.9928,6.0 172.0,6.0 262.0072,6.0 335.0,78.9928 335.0,169.0 Z" />
			<path style="stroke:#fd9f00;stroke-width:1.0;stroke-miterlimit:4.0;fill:none;" d="M 334.5,169.0 C 334.5,258.7311 261.7311,331.5 172.0,331.5 82.2689,331.5 9.5,258.7311 9.5,169.0 9.5,79.2689 82.2689,6.5 172.0,6.5 261.7311,6.5 334.5,79.2689 334.5,169.0 Z" />
		</g>
	</g>
</g>
</svg>