<svg xmlns="http://www.w3.org/2000/svg" width="9.248" height="13.636" viewBox="0 0 9.248 13.636">
  <g id="Group_2861" data-name="Group 2861" transform="translate(-8217.56 -5612.819)">
    <path id="Path_9095" data-name="Path 9095" d="M313.865,364.3l-1.674-2.63.941-.6.732,1.151.733-1.151.941.6Z" transform="translate(7908.318 5262.152)" fill="#fdcd7d"/>
    <path id="Path_9096" data-name="Path 9096" d="M253.862,133.864l-.941-.6c.063-.1.122-.2.177-.3s.108-.207.156-.314.092-.214.132-.322.077-.22.109-.331.061-.224.086-.338.045-.229.061-.343.029-.231.037-.347.012-.233.012-.351a3.514,3.514,0,0,0-.071-.7,3.47,3.47,0,0,0-.527-1.248,3.505,3.505,0,0,0-2.2-1.471,3.581,3.581,0,0,0-1.416,0,3.494,3.494,0,0,0-1.254.526,3.519,3.519,0,0,0-.948.945,3.465,3.465,0,0,0-.6,1.953c0,.116,0,.234.012.35s.021.233.037.347.037.23.062.343.053.226.086.337.069.223.109.33.085.217.132.323.1.211.155.313.115.2.178.3l-.941.6c-.076-.12-.15-.245-.218-.371s-.132-.255-.19-.384-.113-.263-.162-.4-.094-.268-.134-.405-.075-.276-.1-.414-.055-.281-.076-.421-.035-.284-.046-.426-.015-.287-.015-.43a4.638,4.638,0,0,1,.094-.929,4.6,4.6,0,0,1,1.261-2.332,4.614,4.614,0,0,1,2.338-1.256,4.7,4.7,0,0,1,1.862,0,4.626,4.626,0,0,1,3.329,2.721,4.579,4.579,0,0,1,.364,1.8c0,.144-.005.288-.015.43s-.025.285-.046.426-.045.281-.075.42-.065.279-.105.414-.084.271-.134.405-.1.266-.162.4-.123.259-.191.384-.141.251-.218.371Z" transform="translate(7972 5486.811)" fill="#fdcd7d"/>
    <path id="Path_9097" data-name="Path 9097" d="M267.359,314.624l-1.484-1.484h-3.405l-1.484,1.484-.789-.789,1.811-1.811h4.329l1.811,1.811Z" transform="translate(7958.012 5309.03)" fill="#fdcd7d"/>
    <path id="Path_9098" data-name="Path 9098" d="M298.2,181.956a2.4,2.4,0,1,1,2.4-2.4A2.4,2.4,0,0,1,298.2,181.956Zm0-3.684a1.284,1.284,0,1,0,1.284,1.284A1.286,1.286,0,0,0,298.2,178.272Z" transform="translate(7923.987 5437.927)" fill="#fdcd7d"/>
  </g>
</svg>
