<svg id="Group_2859" data-name="Group 2859" xmlns="http://www.w3.org/2000/svg" width="11.365" height="10.37" viewBox="0 0 11.365 10.37">
  <path id="Path_9014" data-name="Path 9014" d="M101.495,75.375v1.033H90.13V75.375a.984.984,0,0,1,.976-.995h.268v.765a.3.3,0,0,0,.306.306h.612a.3.3,0,0,0,.306-.306V74.38h2.583v.765a.3.3,0,0,0,.306.306H96.1a.3.3,0,0,0,.306-.306V74.38h2.583v.765a.3.3,0,0,0,.306.306h.612a.3.3,0,0,0,.306-.306V74.38h.268a.992.992,0,0,1,1.014.995Z" transform="translate(-90.13 -73.691)" fill="#fdcd7d"/>
  <path id="Path_9015" data-name="Path 9015" d="M90.125,192.5v6.122a.98.98,0,0,0,.976.976h9.375a.98.98,0,0,0,.976-.976V192.5Zm10.561,6.122a.192.192,0,0,1-.191.191H91.12a.192.192,0,0,1-.191-.191v-5.338h9.777v5.338Z" transform="translate(-90.125 -189.228)" fill="#fdcd7d"/>
  <path id="Path_9016" data-name="Path 9016" d="M158.234,44.411h.612a.082.082,0,0,0,.077-.077V42.957a.082.082,0,0,0-.077-.077h-.612a.082.082,0,0,0-.077.077v1.378C158.138,44.372,158.176,44.411,158.234,44.411Z" transform="translate(-156.665 -42.88)" fill="#fdcd7d"/>
  <path id="Path_9017" data-name="Path 9017" d="M332.577,44.411h.612a.082.082,0,0,0,.077-.077V42.957a.082.082,0,0,0-.077-.077h-.612a.082.082,0,0,0-.077.077v1.378A.082.082,0,0,0,332.577,44.411Z" transform="translate(-327.2 -42.88)" fill="#fdcd7d"/>
  <path id="Path_9018" data-name="Path 9018" d="M506.62,42.952v1.378a.082.082,0,0,0,.077.077h.612a.082.082,0,0,0,.077-.077V42.952a.082.082,0,0,0-.077-.077H506.7A.082.082,0,0,0,506.62,42.952Z" transform="translate(-497.513 -42.875)" fill="#fdcd7d"/>
  <path id="Path_9019" data-name="Path 9019" d="M230,443.62l.249.249-.459.172c-.019,0-.038,0-.019-.019V444Z" transform="translate(-226.704 -434.857)" fill="#fdcd7d"/>
  <path id="Path_9020" data-name="Path 9020" d="M245.177,423.5l.517.5-.325.115-.364-.325Z" transform="translate(-241.618 -415.178)" fill="#fdcd7d"/>
  <path id="Path_9021" data-name="Path 9021" d="M257.417,403.38l.784.746-.344.115-.612-.574Z" transform="translate(-253.591 -395.497)" fill="#fdcd7d"/>
  <path id="Path_9022" data-name="Path 9022" d="M269.677,384.12l1.052.976-.344.115-.88-.823Z" transform="translate(-265.583 -376.658)" fill="#fdcd7d"/>
  <path id="Path_9023" data-name="Path 9023" d="M281.917,364l1.32,1.224-.344.115-1.148-1.071Z" transform="translate(-277.555 -356.978)" fill="#fdcd7d"/>
  <path id="Path_9024" data-name="Path 9024" d="M294.177,343.88l1.588,1.473-.344.115-1.416-1.3Z" transform="translate(-289.547 -337.298)" fill="#fdcd7d"/>
  <path id="Path_9025" data-name="Path 9025" d="M307.273,324.62l1.837,1.7-.325.134-1.665-1.569Z" transform="translate(-302.375 -318.459)" fill="#fdcd7d"/>
  <path id="Path_9026" data-name="Path 9026" d="M319.547,303.62h.019l1.588,1.971-1.779-1.665Z" transform="translate(-314.362 -297.919)" fill="#fdcd7d"/>
  <path id="Path_9027" data-name="Path 9027" d="M363.488,286.12l.268.019a2.218,2.218,0,0,1-.631,1.091A2.758,2.758,0,0,0,363.488,286.12Z" transform="translate(-357.156 -280.801)" fill="#fdcd7d"/>
  <path id="Path_9028" data-name="Path 9028" d="M380.028,339.754l.038-.249a2.231,2.231,0,0,0-1.186.383A2.581,2.581,0,0,1,380.028,339.754Z" transform="translate(-372.566 -333.019)" fill="#fdcd7d"/>
  <path id="Path_9029" data-name="Path 9029" d="M370.168,305.38l.191.249-1.11.593Z" transform="translate(-363.146 -299.64)" fill="#fdcd7d"/>
  <path id="Path_9030" data-name="Path 9030" d="M368.617,245.711l-.1.153a.036.036,0,0,0,0,.057l.115.153c.019.038,0,.077-.038.077l-.191-.057a.07.07,0,0,0-.057.019l-.1.153a.041.041,0,0,1-.077-.019v-.191a.041.041,0,0,0-.038-.038l-.172-.057a.054.054,0,0,1,0-.1l.172-.057a.041.041,0,0,0,.038-.038v-.191a.052.052,0,0,1,.077-.038l.115.153a.07.07,0,0,0,.057.019l.172-.057C368.6,245.635,368.636,245.673,368.617,245.711Z" transform="translate(-361.863 -241.101)" fill="#fdcd7d"/>
  <path id="Path_9031" data-name="Path 9031" d="M440.353,334.081l-.1.153a.036.036,0,0,0,0,.057l.115.153c.019.038,0,.076-.038.076l-.172-.057a.07.07,0,0,0-.057.019l-.1.153a.041.041,0,0,1-.077-.019v-.191a.041.041,0,0,0-.038-.038l-.172-.057a.054.054,0,0,1,0-.1l.172-.057a.041.041,0,0,0,.038-.038v-.191a.052.052,0,0,1,.077-.038l.115.153a.07.07,0,0,0,.057.019l.172-.057C440.353,334,440.391,334.043,440.353,334.081Z" transform="translate(-432.049 -327.538)" fill="#fdcd7d"/>
  <path id="Path_9032" data-name="Path 9032" d="M418.525,276.355l-.1.153a.036.036,0,0,0,0,.057l.115.153c.019.038,0,.1-.057.077l-.191-.057a.07.07,0,0,0-.057.019l-.1.153a.041.041,0,0,1-.076-.019V276.7a.041.041,0,0,0-.038-.038l-.191-.057a.054.054,0,0,1,0-.1l.172-.077a.041.041,0,0,0,.038-.038V276.2a.052.052,0,0,1,.076-.038l.115.153a.07.07,0,0,0,.057.019l.172-.077C418.506,276.279,418.544,276.317,418.525,276.355Z" transform="translate(-410.642 -271.056)" fill="#fdcd7d"/>
</svg>
