<svg id="Iconly_Bold_Home" data-name="Iconly/Bold/Home" xmlns="http://www.w3.org/2000/svg" width="17.6" height="18.48" viewBox="0 0 17.6 18.48">
  <g id="Home">
    <path id="Home-2" data-name="Home" d="M6.146,17.347V14.521a1.312,1.312,0,0,1,1.319-1.306h2.662a1.325,1.325,0,0,1,.933.382,1.3,1.3,0,0,1,.386.923v2.825a1.12,1.12,0,0,0,.33.8,1.142,1.142,0,0,0,.806.332H14.4a3.209,3.209,0,0,0,2.263-.923,3.147,3.147,0,0,0,.938-2.239V7.269a2.283,2.283,0,0,0-.829-1.758L10.592.625A2.875,2.875,0,0,0,6.934.69L.9,5.511A2.284,2.284,0,0,0,0,7.269V15.31a3.186,3.186,0,0,0,3.2,3.17H4.976a1.139,1.139,0,0,0,1.145-1.125Z" fill="#e2e2e2"/>
  </g>
</svg>
