<?xml version="1.0"?>
<svg xmlns:rdf="http://www.w3.org/1999/02/22-rdf-syntax-ns#" xmlns="http://www.w3.org/2000/svg" xmlns:cc="http://creativecommons.org/ns#" xmlns:dc="http://purl.org/dc/elements/1.1/" xmlns:svg="http://www.w3.org/2000/svg" id="svg2" viewBox="0 0 141.43 103.05" version="1.1" stroke-miterlimit="10" font-family="'Times New Roman'">
  <title id="title4"/>
  <desc id="desc6">Imported from mexico.wmf 25/05/2008 18:03:13</desc>
  <polyline id="polyline10" stroke="#000" points="11.96 3.75 27.65 12.04 36.69 12.78 36.78 14.61 37.02 14.77 37.11 16.69 37.27 16.85 37.35 19.92 37.18 21.92 37.11 22.99 36.69 23.16 36.69 26.05 36.78 26.72 36.52 27.38 36.44 28.54 36.44 29.04 34.12 28.88 34.36 29.96 34.53 30.87 34.95 31.7 35.28 32.36 35.78 32.45 35.86 32.86 35.61 33.02 35.86 33.19 35.95 33.35 35.95 34.18 35.95 35.43 35.86 35.77 35.95 36.01 36.52 36.34 36.11 37.42 33.37 39.49 33.12 39.75 32.96 39.25 32.54 39.42 32.54 38.83 32.29 38.25 32.21 38 31.87 37.59 31.54 37.5 31.21 37.5 30.3 37.26 29.97 36.76 29.8 36.43 29.97 36.01 29.8 35.68 29.64 35.35 29.38 35.01 29.05 35.18 28.72 35.18 28.39 34.94 28.06 34.6 27.72 34.35 27.48 34.02 27.65 33.69 27.56 33.35 27.39 33.02 27.15 32.69 27.15 32.36 26.98 32.03 26.65 31.86 26.89 31.53 27.23 31.53 27.32 31.2 26.98 30.87 26.65 30.79 26.32 30.7 25.99 30.62 25.66 30.46 25.24 30.29 24.83 29.96 24.49 29.7 24.25 29.37 24 29.04 23.83 28.54 23.75 28.21 23.59 27.88 23.25 27.64 22.92 27.55 22.59 27.3 22.34 26.97 22.26 26.64 22.17 26.31 22 25.98 21.84 25.65 21.76 25.31 21.67 24.98 21.34 24.65 21.25 24.32 21.17 23.99 21.17 23.65 21.09 23.32 21.01 22.99 20.84 22.66 20.68 22.33 20.42 22 20.26 21.66 20.09 21.33 19.85 21 19.68 20.67 19.68 20.34 19.59 20.01 19.51 19.67 19.35 19.34 19.09 19.01 19.02 18.68 19.02 18.35 18.93 18.01 18.93 17.68 18.85 17.35 18.76 17.02 18.52 16.69 18.52 16.36 18.52 16.02 18.43 15.69 18.26 15.36 18.02 15.03 17.93 14.7 17.69 14.36 17.69 14.03 17.69 13.7 17.69 13.37 17.69 13.04 17.93 12.71 17.93 12.37 18.02 12.04 18.1 11.71 17.77 11.47 17.43 11.21 17.1 11.05 16.77 10.97 16.44 10.88 16.11 10.8 15.94 10.14 15.78 9.8 15.61 9.47 15.28 9.3 14.95 9.3 14.61 9.3 14.2 9.39 13.87 9.39 13.54 9.22 13.21 8.97 12.88 8.64 12.54 8.3 12.21 8.06 11.96 7.73 11.64 7.47 11.31 7.31 11.05 6.98 10.72 6.65 10.39 6.48 10.04 6.39 10.21 6.06 10.46 5.73 10.46 5.4 10.54 5.06 10.54 4.73 10.8 4.4 11.21 3.98 11.54 3.9 11.78 3.57 11.96 3.75" stroke-miterlimit="10" stroke-width=".28222" fill="none"/>
  <polyline id="polyline12" stroke="#000" points="36.52 36.34 35.95 36.01 35.86 35.77 35.95 35.43 35.95 34.18 35.95 33.35 35.86 33.19 35.61 33.02 35.86 32.86 35.78 32.45 35.28 32.36 34.95 31.7 34.53 30.87 34.36 29.96 34.12 28.88 36.44 29.04 36.44 28.54 36.52 27.38 36.78 26.72 36.69 26.05 36.69 23.16 37.11 22.99 37.18 21.92 37.35 19.92 37.27 16.85 37.11 16.69 37.02 14.77 36.78 14.61 36.69 12.78 37.11 12.87 39.67 12.95 39.76 10.55 45.9 10.72 46.24 11.12 46.57 11.46 46.82 11.79 47.06 12.12 47.32 12.45 47.65 12.71 47.73 13.04 47.98 13.37 48.32 13.61 48.65 13.94 48.98 14.2 49.15 14.61 49.48 14.94 49.72 15.27 49.89 15.6 50.22 15.94 50.55 16.18 50.88 16.43 51.21 16.68 51.55 16.84 51.88 17.1 52.21 17.43 52.29 17.76 52.45 18.09 52.45 18.42 52.54 18.76 52.71 19.09 52.79 19.42 53.04 19.75 53.21 20.08 53.28 20.41 53.21 20.75 53.28 21.08 53.37 21.41 53.45 21.74 53.54 22.07 53.7 22.41 53.87 22.74 54.11 23.07 54.53 23.4 54.87 23.32 55.11 23.65 55.44 23.9 55.77 24.23 56.1 24.4 56.44 24.48 56.86 24.65 57.02 24.98 57.35 25.15 57.69 25.23 58.02 25.48 58.26 25.81 58.59 25.98 58.93 26.05 59.26 26.14 59.59 26.22 59.68 26.48 56.1 32.19 57.02 38.74 56.69 38.57 56.36 38.5 56.03 38.17 55.7 37.91 55.36 37.91 55.03 37.83 54.7 37.91 54.37 38.08 54.2 38.41 54.11 38.74 53.87 39.07 53.78 39.4 53.61 39.74 53.37 40.07 53.12 40.4 52.79 40.4 52.45 40.16 52.21 39.82 51.88 39.66 51.55 39.66 51.14 39.74 50.8 39.57 50.47 39.49 50.14 39.57 49.81 39.57 49.48 39.66 49.15 39.57 48.81 39.4 48.48 38.99 48.23 38.66 47.89 38.5 47.56 38.41 47.23 38.33 46.9 38 46.57 37.75 46.24 37.75 45.9 37.83 45.57 37.91 45.41 38.24 45.41 38.57 45.41 38.91 45.41 39.24 45.16 39.57 44.83 39.66 44.5 39.82 44.24 40.16 44.24 40.49 44.33 40.82 44.33 41.15 44.08 41.48 43.82 41.82 43.82 42.15 43.91 42.56 43.91 42.89 43.75 43.22 43.58 43.55 43.25 43.72 42.83 43.81 42.5 43.72 42.09 43.64 41.75 43.64 41.42 43.64 41.26 43.31 41.26 42.98 41.26 42.64 40.92 42.39 40.59 42.15 40.59 41.73 40.76 41.39 40.43 41.15 40.09 40.99 39.76 40.99 39.43 40.9 39.26 40.57 39.26 40.23 39.26 39.9 39.18 39.57 39.18 39.24 39.26 38.91 39.26 38.57 39.1 38.24 38.93 37.91 38.84 37.58 38.6 37.25 38.43 36.92 38.1 36.67 37.77 36.67 37.44 36.67 37.11 36.67 36.78 36.42 36.52 36.34" stroke-miterlimit="10" stroke-width=".28222" fill="none"/>
  <polyline id="polyline14" stroke="#000" points="68.22 49.45 69.22 50.7 70.38 50.7 70.3 47.54 70.71 47.05 71.04 46.88 71.37 46.88 71.71 46.88 72.04 46.88 72.37 46.96 72.79 47.05 73.2 47.12 73.53 47.05 73.45 46.71 73.03 46.55 72.7 46.38 72.37 46.22 72.04 46.05 71.71 45.72 71.37 45.39 71.13 45.06 70.88 44.72 70.71 44.39 70.54 44.05 70.05 43.64 69.97 43.31 69.97 42.98 69.88 42.64 69.71 42.31 69.71 41.98 69.47 41.65 69.14 41.56 68.81 41.48 68.36 40.47 68.88 40.16 69.8 39.16 70.21 38.99 70.54 38.99 70.88 38.91 71.13 38.57 71.46 38.33 71.63 38 71.79 37.67 71.37 37.08 70.69 36.48 70.21 36.92 70.13 35.92 71.13 35.1 71.46 35.01 71.79 34.85 72.04 34.52 71.96 34.18 72.13 33.85 72.46 33.52 72.7 33.19 73.03 33.19 73.36 33.35 73.7 33.44 74.03 33.19 74.36 32.95 74.53 32.61 74.53 32.28 74.36 31.95 74.19 31.62 74.03 31.29 73.7 30.95 73.12 30.7 72.87 30.37 72.7 30.04 72.53 29.7 72.37 29.37 72.2 29.04 72.04 28.71 71.71 28.47 71.71 28.13 71.63 27.8 71.37 27.47 71.21 27.14 71.04 26.81 70.96 26.48 70.8 26.14 70.71 25.81 70.63 25.48 70.3 25.15 69.97 24.82 69.71 24.48 69.38 24.15 69.05 23.82 68.72 23.65 68.39 23.57 68.05 23.4 67.89 23.07 67.56 22.83 67.31 22.49 66.98 22.33 66.65 22.33 66.23 22.16 65.9 22.16 65.49 22.16 65.07 22.16 64.73 22.16 64.4 22.16 64.07 22 63.74 21.91 63.41 22.16 63.07 22.33 62.74 22.24 62.41 22.16 62.08 22.24 61.76 22.49 61.5 22.83 61.43 23.16 61.34 23.49 61.34 23.82 61.26 24.15 61.09 24.48 61.01 24.82 60.67 25.15 60.6 25.48 60.43 25.81 60.18 26.14 59.84 26.31 59.68 26.48 56.1 32.19 57.02 38.74 57.35 38.91 57.61 39.24 57.85 39.57 58.18 39.74 58.44 40.07 58.68 40.4 58.85 40.73 58.85 41.15 58.77 41.48 58.68 41.82 58.6 42.15 58.52 42.48 58.44 42.89 58.52 43.22 58.6 43.64 58.6 43.97 58.44 44.3 58.18 44.64 57.94 44.97 57.85 45.3 57.69 45.63 57.61 45.96 57.61 46.29 57.78 46.63 58.02 47.12 58.35 47.38 58.6 47.71 58.68 48.04 59.01 48.37 59.35 48.54 59.68 48.62 60.01 48.78 60.43 48.95 60.76 48.95 61.09 48.71 61.26 48.37 61.43 48.04 61.43 47.71 61.67 47.38 62 47.29 62.33 47.12 62.67 47.05 63 47.05 63.33 47.05 63.66 47.05 63.99 47.21 64.33 47.38 64.73 47.46 65.07 47.62 65.4 47.79 65.56 48.12 65.82 48.45 66.15 48.71 66.56 48.87 66.89 48.95 66.98 49.28 67.22 49.61 67.56 49.61 67.89 49.53 68.22 49.45" stroke-miterlimit="10" stroke-width=".28222" fill="none"/>
  <polyline id="polyline16" stroke="#000" points="41.42 43.64 41.26 43.31 41.26 42.98 41.26 42.64 40.92 42.39 40.59 42.15 40.59 41.73 40.76 41.39 40.43 41.15 40.09 40.99 39.76 40.99 39.43 40.9 39.26 40.57 39.26 40.23 39.26 39.9 39.18 39.57 39.18 39.24 39.26 38.91 39.26 38.57 39.1 38.24 38.93 37.91 38.84 37.58 38.6 37.25 38.43 36.92 38.1 36.67 37.77 36.67 37.44 36.67 37.11 36.67 36.78 36.42 36.52 36.34 36.11 37.42 33.37 39.49 33.12 39.75 32.96 40.08 32.63 40.08 32.29 40.08 32.22 40.41 32.13 40.74 31.96 41.07 31.8 41.41 31.55 41.74 31.63 42.07 31.72 42.4 31.72 42.73 31.72 43.06 32.13 43.23 32.46 43.31 32.79 43.23 33.12 43.23 33.46 43.23 33.79 43.4 34.12 43.64 34.45 43.97 34.87 44.3 35.04 44.64 35.2 44.97 35.54 45.3 35.87 45.46 36.2 45.72 36.37 46.05 36.28 46.38 36.53 46.71 36.7 47.05 36.94 47.38 37.03 47.71 37.2 48.04 37.53 48.04 37.86 47.95 38.03 48.37 38.03 48.71 37.86 49.04 38.19 49.28 38.52 49.53 38.77 49.87 39.1 50.03 39.43 50.03 39.76 50.28 40.02 50.61 39.6 50.77 39.26 50.7 38.93 50.53 39.02 50.86 39.35 51.11 39.69 51.27 40.02 51.53 40.35 51.69 40.59 52.02 40.76 52.35 40.85 52.69 40.85 53.02 40.76 53.35 41.09 53.43 41.42 53.68 41.67 54.01 41.75 54.35 41.83 54.68 42.09 55.01 42.16 55.34 42.33 55.67 42.58 56 42.92 56.5 43.25 56.91 43.33 57.24 43.49 57.58 43.82 57.74 44.08 58.07 44.41 58.24 44.74 58.49 45.07 58.82 45.33 59.16 45.49 59.49 45.57 59.82 45.9 59.99 46.24 60.23 46.57 60.32 46.9 60.48 47.23 60.56 47.56 60.82 47.82 61.15 47.98 60.82 47.98 60.48 47.89 60.15 47.89 59.82 47.89 59.49 47.98 59.16 48.23 58.82 48.48 58.49 48.15 58.16 47.82 57.91 47.65 57.58 47.32 57.24 47.06 56.83 46.99 56.5 46.9 56.08 46.66 55.75 46.49 55.42 46.4 55.01 46.4 54.68 46.32 54.35 46.32 54.01 46.16 53.68 46.07 53.35 45.99 53.02 45.9 52.69 45.74 52.35 45.57 52.02 45.33 51.69 45 51.36 44.66 51.11 44.33 51.27 44.08 51.6 43.75 51.69 43.41 51.53 43.25 51.19 43.16 50.86 43.16 50.53 43.16 50.2 43.08 49.87 42.92 49.53 42.75 49.2 42.5 48.87 42.16 48.54 41.92 48.21 41.67 47.88 41.59 47.54 41.42 47.21 41.17 46.79 41.09 46.46 41.01 46.05 41.01 45.72 41.17 45.39 41.17 45.06 41.17 44.72 41.17 44.39 41.09 44.06 41.17 43.73 41.42 43.64" stroke-miterlimit="10" stroke-width=".28222" fill="none"/>
  <polyline id="polyline18" stroke="#000" points="70.38 50.7 70.3 47.54 70.71 47.05 71.04 46.88 71.37 46.88 71.71 46.88 72.04 46.88 72.37 46.96 72.79 47.05 73.2 47.12 73.53 47.05 73.45 46.71 73.03 46.55 72.7 46.38 72.37 46.22 72.04 46.05 71.71 45.72 71.37 45.39 71.13 45.06 70.88 44.72 70.71 44.39 70.54 44.05 70.05 43.64 69.97 43.31 69.97 42.98 69.88 42.64 69.71 42.31 69.71 41.98 69.47 41.65 69.14 41.56 68.81 41.48 68.36 40.47 68.88 40.16 69.8 39.16 70.21 38.99 70.54 38.99 70.88 38.91 71.13 38.57 71.46 38.33 71.63 38 71.79 37.67 71.37 37.08 70.69 36.48 70.21 36.92 70.13 35.92 71.13 35.1 71.46 35.01 71.79 34.85 72.04 34.52 71.96 34.18 72.13 33.85 72.46 33.52 72.7 33.19 73.03 33.19 73.36 33.35 73.7 33.44 74.03 33.19 74.36 32.95 74.53 32.61 75 33 74.67 33.25 74.34 33.5 74.26 33.83 74.17 34.16 74.26 34.49 74.59 34.66 74.84 34.99 74.92 35.32 74.92 35.65 75.09 35.99 75.26 36.32 75.26 36.65 75.26 36.98 74.92 37.24 75 37.57 75.33 37.9 75.33 38.23 75.42 38.56 75.75 38.73 76.09 38.9 76.42 39.14 76.42 39.47 76.5 39.8 76.5 40.13 76.75 40.47 77.07 40.72 77.4 40.89 77.66 41.22 78.07 41.38 78.4 41.55 78.73 41.79 79.06 41.96 79.39 42.05 79.73 42.12 80.06 42.12 80.39 42.21 80.65 42.54 80.72 42.88 80.72 43.21 80.72 43.54 80.65 43.87 80.65 44.2 80.65 44.54 80.65 44.87 81.05 45.03 80.98 45.44 80.81 45.77 80.56 46.11 80.22 46.44 79.98 46.77 79.65 47.02 79.32 47.02 78.9 46.94 78.57 46.94 78.23 47.1 78.07 47.43 77.9 47.77 77.82 48.1 77.82 48.43 77.82 48.76 77.74 49.09 77.66 49.42 77.24 49.42 76.91 49.51 76.58 49.51 76.25 49.59 75.92 49.84 75.75 50.18 75.42 50.25 75.17 50.59 75.42 50.92 75.67 51.25 75.75 51.58 75.75 51.91 75.75 52.24 75.75 52.66 75.83 53.33 76.16 53.57 76.42 53.9 76.25 54.24 75.92 54.49 75.59 54.57 75.26 54.66 75 54.99 74.92 55.32 74.84 55.65 74.76 56.06 74.76 56.39 74.5 56.72 74.17 56.72 73.76 56.65 73.43 56.72 73.18 57.06 73.43 57.39 73.27 57.72 72.93 57.64 72.6 57.55 72.44 57.88 72.1 57.97 71.94 57.55 71.94 57.22 71.85 56.89 71.94 56.56 72.01 56.15 71.85 55.56 71.85 55.23 71.85 54.9 71.68 54.57 71.61 54.24 71.35 53.9 71.27 53.57 71.27 53.16 71.44 52.74 71.44 52.41 71.35 52.08 71.27 51.75 70.94 51.41 70.44 50.92 70.38 50.7" stroke-miterlimit="10" stroke-width=".28222" fill="none"/>
  <polyline id="polyline20" stroke="#000" points="56.99 38.76 56.66 38.6 56.33 38.52 55.99 38.19 55.66 37.93 55.33 37.93 55 37.86 54.67 37.93 54.33 38.1 54.17 38.43 54.08 38.76 53.84 39.09 53.75 39.43 53.58 39.76 53.34 40.09 53.08 40.42 52.75 40.42 52.42 40.18 52.18 39.85 51.84 39.68 51.51 39.68 51.1 39.76 50.77 39.59 50.44 39.51 50.11 39.59 49.78 39.59 49.44 39.68 49.11 39.59 48.78 39.43 48.45 39.02 48.19 38.69 47.86 38.52 47.53 38.43 47.2 38.35 46.87 38.02 46.53 37.77 46.2 37.77 45.87 37.86 45.54 37.93 45.37 38.26 45.37 38.6 45.37 38.93 45.37 39.26 45.13 39.59 44.8 39.68 44.46 39.85 44.21 40.18 44.21 40.51 44.3 40.84 44.3 41.17 44.04 41.51 43.79 41.84 43.79 42.17 43.88 42.58 43.88 42.91 43.71 43.24 43.55 43.57 43.21 43.74 42.79 43.83 42.46 43.74 42.05 43.66 41.72 43.66 41.42 43.64 41.17 43.73 41.09 44.06 41.17 44.39 41.17 44.72 41.17 45.06 41.17 45.39 41.01 45.72 41.01 46.05 41.09 46.46 41.17 46.79 41.42 47.21 41.59 47.54 41.67 47.88 41.92 48.21 42.16 48.54 42.5 48.87 42.75 49.2 42.92 49.53 43.08 49.87 43.16 50.2 43.16 50.53 43.16 50.86 43.25 51.19 43.41 51.53 43.75 51.69 44.08 51.6 44.33 51.27 44.66 51.11 45 51.36 45.33 51.69 45.57 52.02 45.74 52.35 45.9 52.69 45.99 53.02 46.07 53.35 46.16 53.68 46.32 54.01 46.32 54.35 46.4 54.68 46.4 55.01 46.49 55.42 46.66 55.75 46.9 56.08 46.99 56.5 47.06 56.83 47.32 57.24 47.65 57.58 47.82 57.91 48.15 58.16 48.48 58.49 48.45 58.71 49.11 58.71 50.27 59.3 50.36 60.04 49.94 60.46 49.61 60.79 49.53 61.13 50.2 61.37 50.53 61.04 51.27 60.79 52.52 60.87 52.69 61.2 52.76 61.53 52.93 61.62 53.18 61.7 53.43 61.53 53.68 61.62 53.76 62.36 54.18 61.46 54.35 59.05 54.51 57.14 55.25 56.15 56.25 55.65 56.17 55.4 55.92 54.9 56.25 53.49 58.57 51.34 60.98 51.58 62.55 51.08 62.64 48.76 61.81 47.77 61.43 47.71 61.43 48.04 61.26 48.37 61.09 48.71 60.76 48.95 60.43 48.95 60.01 48.78 59.68 48.62 59.35 48.54 59.01 48.37 58.68 48.04 58.6 47.71 58.35 47.38 58.02 47.12 57.78 46.63 57.61 46.29 57.61 45.96 57.69 45.63 57.85 45.3 57.94 44.97 58.18 44.64 58.44 44.3 58.6 43.97 58.6 43.64 58.52 43.22 58.44 42.89 58.52 42.48 58.6 42.15 58.68 41.82 58.77 41.48 58.85 41.15 58.85 40.73 58.68 40.4 58.44 40.07 58.18 39.74 57.85 39.57 57.61 39.24 57.35 38.91 56.99 38.76" stroke-miterlimit="10" stroke-width=".28222" fill="none"/>
  <polyline id="polyline22" stroke="#000" points="54.51 68.59 54.09 68.5 53.76 68.34 53.52 68 53.18 68 53.09 68.34 53.09 68.67 53.43 69 53.59 69.33 53.68 69.66 53.43 70 53.09 70.25 53.02 70.66 53.02 70.99 53.09 71.32 53.02 71.65 52.69 71.82 52.35 71.82 52.1 71.49 52.1 71.16 52.1 70.82 52.1 70.49 51.93 70.16 51.6 69.92 51.27 69.66 50.94 69.42 50.61 69.42 50.27 69.59 50.03 69.92 49.86 70.25 49.53 70.42 49.2 70.49 48.87 70.58 48.61 70.91 48.45 71.24 48.12 71.32 47.78 71.16 47.45 71.16 47.29 70.75 47.45 70.42 47.71 70.08 47.95 69.75 48.28 69.42 48.45 69.09 48.54 68.76 48.61 68.34 48.61 68 48.7 67.67 48.78 67.34 48.7 67.01 48.45 66.68 48.12 66.51 47.78 66.1 47.54 65.77 47.45 65.44 47.29 65.02 47.12 64.69 47.04 64.35 46.88 64.02 46.79 63.69 46.79 63.36 46.79 63.03 46.79 62.7 46.71 62.36 46.62 62.03 46.54 61.7 46.88 61.62 47.21 61.46 47.12 61.13 47.56 60.82 47.82 61.15 47.98 60.82 47.98 60.48 47.89 60.15 47.89 59.82 47.89 59.49 47.98 59.16 48.23 58.82 48.45 58.71 49.11 58.71 50.27 59.3 50.36 60.04 49.94 60.46 49.61 60.79 49.53 61.13 50.2 61.37 50.53 61.04 51.27 60.79 52.52 60.87 52.69 61.2 52.76 61.53 52.93 61.62 53.18 61.7 53.43 61.53 53.68 61.62 53.76 62.36 53.68 62.78 53.26 63.95 54.01 65.18 54.09 65.52 53.85 66.84 54.68 67.76 54.59 68.59 54.51 68.59" stroke-miterlimit="10" stroke-width=".28222" fill="none"/>
  <polyline id="polyline24" stroke="#000" points="66.87 65.52 66.54 65.18 66.37 64.85 66.04 64.61 65.71 64.61 65.3 64.78 64.88 64.94 64.55 65.18 64.3 65.6 63.97 65.94 63.64 66.1 63.31 66.18 62.98 66.18 62.64 66.18 62.31 66.1 61.98 65.94 61.65 65.85 61.32 65.85 60.98 65.94 60.73 66.27 60.73 66.6 60.9 66.93 60.98 67.26 60.82 67.6 60.65 67.93 59.99 68.42 59.66 68.67 59.32 68.76 58.99 68.76 58.66 68.76 58.33 68.83 58 68.83 57.66 68.76 57.24 68.67 56.91 68.76 56.58 68.92 56.25 69 55.92 68.92 55.58 68.59 55.42 68.26 55.42 67.93 55.51 67.6 55.67 67.26 55.84 66.93 55.92 66.6 56.08 66.27 56.17 65.94 56.34 65.6 56.5 65.27 56.83 65.27 57.17 65.44 57.5 65.44 57.83 65.18 57.83 64.85 57.66 64.52 57.91 64.19 58.24 64.19 58.57 64.19 58.66 63.86 58.83 63.53 58.9 63.19 58.99 62.86 58.99 62.53 58.83 62.2 58.49 61.95 58.16 61.87 57.83 62.03 57.5 62.36 57.33 62.7 57.24 63.03 56.91 63.28 56.58 63.36 56.5 63.03 56.41 62.7 56.41 62.36 56.5 62.03 56.67 61.7 56.75 61.37 56.67 61.04 56.34 60.87 56 61.13 55.92 61.46 55.84 61.79 55.84 62.12 55.67 62.45 55.34 62.45 55.34 62.12 55.34 61.79 55.42 61.46 55.51 61.13 55.75 60.79 56.08 60.46 56 60.13 55.75 59.8 55.42 59.71 55.09 59.8 54.75 60.04 54.75 60.37 54.84 60.71 55.09 61.04 55.25 61.37 55.18 61.7 54.84 61.87 54.51 62.03 54.18 62.2 53.76 62.36 53.68 62.78 53.26 63.95 54.01 65.18 54.09 65.52 53.85 66.84 54.68 67.76 54.59 68.59 54.51 68.59 54.09 68.5 53.76 68.34 53.52 68 53.18 68 53.09 68.34 53.09 68.67 53.43 69 53.59 69.33 53.68 69.66 53.43 70 53.09 70.25 53.02 70.66 53.02 70.99 53.09 71.32 53.02 71.65 52.69 71.82 52.35 71.82 52.1 71.49 52.1 71.16 52.1 70.82 52.1 70.49 51.93 70.16 51.6 69.92 51.27 69.66 50.94 69.42 50.61 69.42 50.27 69.59 50.03 69.92 49.86 70.25 49.53 70.42 49.2 70.49 48.87 70.58 48.61 70.91 48.45 71.24 48.28 71.49 48.45 71.82 48.45 72.15 48.12 72.32 47.78 72.41 47.45 72.48 47.12 72.48 46.79 72.57 46.46 72.65 46.12 72.98 46.21 73.31 46.38 73.64 46.71 73.98 46.79 74.31 46.71 74.64 46.71 74.97 46.95 75.3 47.29 75.47 47.62 75.8 47.78 76.13 47.95 76.47 48.12 76.8 48.37 77.13 48.61 77.55 48.87 77.88 48.95 78.21 48.95 78.79 49.28 78.95 49.7 79.12 50.03 79.29 50.36 79.62 50.69 79.71 50.86 79.37 50.77 79.12 51.1 79.04 51.44 79.04 51.86 79.12 52.27 79.21 52.6 79.29 53.02 79.29 53.35 79.21 53.68 79.12 54.01 78.95 54.35 78.71 54.68 78.54 55.01 78.62 55.34 78.71 55.75 78.71 56.08 78.62 56.41 78.71 56.5 79.04 56.67 79.37 56.83 79.78 56.83 80.11 56.83 80.45 56.67 80.78 56.75 81.11 57.08 81.11 57.41 80.94 57.74 80.94 58.07 81.28 58.41 81.36 58.74 81.2 59.07 80.87 59.4 80.54 59.73 80.2 60.15 80.04 60.49 80.04 60.82 80.04 61.15 79.87 61.48 79.62 61.65 79.29 61.73 78.95 61.65 78.62 61.32 78.62 60.98 78.62 60.65 78.46 60.49 78.12 60.4 77.79 60.4 77.46 60.65 77.13 60.73 76.8 60.4 76.47 60.07 76.3 59.73 76.13 59.4 76.13 59.07 76.13 58.74 76.06 58.41 75.8 58.41 75.47 58.57 75.14 58.9 74.89 59.24 74.89 59.57 74.89 59.9 74.89 60.23 74.97 60.56 74.97 60.73 74.64 60.82 74.31 61.15 74.31 61.48 74.31 61.81 74.4 62.15 74.14 62.31 73.81 62.64 73.64 62.98 73.64 63.31 73.4 63.64 73.31 63.97 73.4 64.3 73.15 64.55 72.82 64.71 72.41 64.64 72.07 64.38 71.74 64.14 71.41 64.21 71.08 64.55 70.82 64.88 70.49 65.21 70.16 65.46 69.83 65.63 69.5 65.96 69.17 66.37 68.76 66.63 68.42 66.7 68.09 66.63 67.76 66.46 67.43 66.13 67.1 66.13 66.77 66.29 66.43 66.46 66.1 66.79 65.77 66.87 65.52" stroke-miterlimit="10" stroke-width=".28222" fill="none"/>
  <polyline id="polyline26" stroke="#000" points="65.24 64.78 64.88 64.94 64.55 65.18 64.3 65.6 63.97 65.94 63.64 66.1 63.31 66.18 62.98 66.18 62.64 66.18 62.31 66.1 61.98 65.94 61.65 65.85 61.32 65.85 60.98 65.94 60.65 66.01 60.32 66.1 59.99 65.85 59.73 65.52 59.66 65.18 59.57 64.85 59.57 64.52 59.66 64.19 59.9 63.86 60.23 63.78 60.56 63.69 60.9 63.69 61.23 63.45 61.56 63.19 61.89 62.95 62.22 62.7 62.55 62.53 62.89 62.36 63.22 62.45 63.55 62.53 63.81 62.86 64.14 63.19 64.38 63.53 64.64 63.86 64.8 64.52 65.24 64.78" stroke-miterlimit="10" stroke-width=".28222" fill="none"/>
  <polyline id="polyline28" stroke="#000" points="65.46 62.12 63.81 60.13 63.72 59.71 63.64 59.38 63.64 58.88 63.38 58.64 63.38 57.55 64.64 56.39 66.54 54.99 67.87 53.99 69.36 51.58 70.28 50.84 70.44 50.92 70.94 51.41 71.27 51.75 71.35 52.08 71.44 52.41 71.44 52.74 71.27 53.16 71.27 53.57 71.35 53.9 71.61 54.24 71.68 54.57 71.85 54.9 71.85 55.23 71.85 55.56 72.01 56.15 71.94 56.56 71.85 56.89 71.94 57.22 71.94 57.55 72.1 57.97 72.44 57.88 72.6 57.55 72.93 57.64 73.27 57.72 73.43 57.39 73.76 57.64 73.6 57.97 73.6 58.31 73.93 58.14 74.26 58.05 74.34 58.38 74.01 58.55 74.17 58.88 74.5 58.71 74.84 58.8 75 59.13 74.84 59.47 74.5 59.54 74.17 59.8 74.34 60.13 74.67 60.21 75 60.37 75.42 60.46 75.75 60.54 76.09 60.63 76.5 60.54 76.83 60.71 77.16 60.96 77.49 61.29 77.66 61.62 77.82 61.95 78.16 62.2 78.49 62.29 78.82 62.29 79.24 62.29 79.57 62.29 79.98 62.29 80.31 62.2 80.65 62.12 80.98 62.12 81.31 62.29 81.64 62.45 81.97 62.78 82.14 63.12 82.14 63.45 81.97 63.78 81.73 64.11 81.64 64.44 81.56 64.78 81.56 65.11 81.56 65.44 81.47 65.77 81.23 66.1 80.9 66.35 80.73 66.68 80.4 66.93 80.07 67.26 79.98 67.6 80.15 67.93 80.24 68.26 79.98 68.59 79.65 68.34 79.32 68.17 78.99 68.09 78.65 67.93 78.49 67.6 78.32 67.26 78.16 66.93 77.99 66.6 77.66 66.68 77.33 66.84 77.08 67.18 76.75 67.51 76.42 67.34 76.09 67.1 75.2 67.45 74.7 67.29 74.34 67.01 74.01 66.93 73.67 66.77 73.34 66.6 73.01 66.35 72.68 66.18 72.35 66.27 72.18 66.6 71.85 66.93 71.52 67.1 71.19 67.01 70.78 66.93 70.44 66.68 70.19 66.35 69.86 66.01 69.61 65.68 69.28 65.68 68.95 65.68 68.62 65.68 68.29 65.68 67.95 65.68 67.62 65.68 67.29 65.68 66.96 65.52 67.12 65.18 67.29 64.85 67.53 64.52 67.53 64.19 67.53 63.86 67.53 63.53 67.7 63.19 67.7 62.86 67.53 62.53 67.7 62.2 67.95 61.87 67.7 61.53 67.37 61.2 67.04 61.2 66.7 61.46 66.37 61.79 66.04 62.03 65.71 62.12 65.46 62.12" stroke-miterlimit="10" stroke-width=".28222" fill="none"/>
  <polyline id="polyline30" stroke="#000" points="75.2 67.45 74.7 67.29 74.34 67.01 74.01 66.93 73.67 66.77 73.34 66.6 73.01 66.35 72.68 66.18 72.35 66.27 72.18 66.6 71.85 66.93 71.52 67.1 71.19 67.01 70.78 66.93 70.44 66.68 70.19 66.35 69.86 66.01 69.61 65.68 69.28 65.68 68.95 65.68 68.62 65.68 68.29 65.68 67.95 65.68 67.62 65.68 67.29 65.68 66.96 65.52 66.87 65.52 66.79 65.77 66.46 66.1 66.29 66.43 66.13 66.77 66.13 67.1 66.46 67.43 66.63 67.76 66.7 68.09 66.63 68.42 66.37 68.76 65.96 69.17 65.63 69.5 65.46 69.83 65.21 70.16 64.88 70.49 64.55 70.82 64.21 71.08 64.14 71.41 64.38 71.74 64.64 72.07 64.71 72.41 64.55 72.82 64.3 73.15 63.97 73.4 64.16 73.76 64.49 73.92 64.75 74.25 65.08 74.51 65.41 74.51 65.82 74.42 66.15 74.18 66.24 73.84 66.57 73.68 66.9 73.92 66.9 74.25 66.9 74.59 66.98 74.92 67.15 75.25 67.48 75.5 67.81 75.41 67.9 75.08 68.23 75.01 68.56 75.01 68.89 75.08 69.23 75.17 69.56 75.17 69.89 75.41 70.22 75.67 70.55 75.67 70.89 75.75 71.22 75.83 71.55 75.83 71.88 75.83 72.21 75.67 72.46 75.34 72.79 75.17 73.12 75.08 73.29 74.75 73.12 74.42 72.79 74.18 72.46 73.92 72.13 73.59 71.96 73.26 71.79 72.93 71.79 72.59 71.79 72.26 71.72 71.93 71.55 71.6 71.63 71.27 71.88 70.94 72.21 70.77 72.55 70.77 72.88 70.69 73.12 70.36 73.45 70.03 73.79 69.86 74.12 69.53 74.37 69.2 74.7 69.11 75.04 69.2 75.37 69.03 75.7 68.7 75.53 68.37 75.44 68.04 75.44 67.71 75.2 67.45" stroke-miterlimit="10" stroke-width=".28222" fill="none"/>
  <polyline id="polyline32" stroke="#000" points="79.93 68.7 79.59 68.78 79.26 68.94 78.93 68.94 78.6 69.11 78.27 69.28 77.93 69.36 77.6 69.36 77.44 69.7 77.19 70.03 77.03 70.36 76.7 70.69 76.53 71.02 76.44 71.36 76.36 71.69 76.36 72.02 76.27 72.35 76.11 72.68 75.78 72.93 75.44 73.18 75.11 73.51 74.78 73.84 74.78 74.18 74.62 74.51 74.28 74.84 74.04 75.17 73.71 75.34 72.7 75.34 72.79 75.17 73.12 75.08 73.29 74.75 73.12 74.42 72.79 74.18 72.46 73.92 72.13 73.59 71.96 73.26 71.79 72.93 71.79 72.59 71.79 72.26 71.72 71.93 71.55 71.6 71.63 71.27 71.88 70.94 72.21 70.77 72.55 70.77 72.88 70.69 73.12 70.36 73.45 70.03 73.79 69.86 74.12 69.53 74.37 69.2 74.7 69.11 75.04 69.2 75.37 69.03 75.7 68.7 75.53 68.37 75.44 68.04 75.44 67.71 75.2 67.45 76.09 67.1 76.42 67.34 76.75 67.51 77.08 67.18 77.33 66.84 77.66 66.68 77.99 66.6 78.16 66.93 78.32 67.26 78.49 67.6 78.65 67.93 78.99 68.09 79.32 68.17 79.65 68.34 79.98 68.59 79.93 68.7" stroke-miterlimit="10" stroke-width=".28222" fill="none"/>
  <polyline id="polyline34" stroke="#000" points="79.93 68.7 79.59 68.78 79.26 68.94 78.93 68.94 78.6 69.11 78.27 69.28 77.93 69.36 77.6 69.36 77.44 69.7 77.19 70.03 77.03 70.36 76.7 70.69 76.53 71.02 76.44 71.36 76.36 71.69 76.36 72.02 76.27 72.35 76.11 72.68 75.78 72.93 75.44 73.18 75.11 73.51 74.78 73.84 74.95 73.92 75.37 74.01 75.7 74.18 75.94 74.51 76.27 74.59 76.61 74.51 76.94 74.75 77.1 75.08 77.19 75.41 77.36 75.75 77.69 76 78.02 76 78.43 75.83 78.35 75.5 78.52 75.17 78.85 75.17 79.18 75.34 79.35 75.67 79.43 76 79.59 76.33 79.93 76.41 80.26 76.17 80.59 76.08 80.92 76.08 81.09 76.41 81.09 76.74 81.18 77.07 81.42 77.41 81.75 77.49 82.08 77.66 82.42 77.49 82.75 77.16 82.91 76.83 82.91 76.5 82.91 76.17 83.08 75.83 83.17 75.5 83.25 75.17 83.33 74.84 83.5 74.51 83.58 74.18 83.67 73.84 83.83 73.51 84.08 73.18 84.33 72.85 84.57 72.52 84.83 72.1 84.83 71.76 84.83 71.43 84.57 71.1 84.24 71.02 84 71.36 84 71.69 83.74 72.02 83.58 72.35 83.25 72.52 82.91 72.59 82.58 72.59 82.25 72.59 81.92 72.59 81.67 72.26 81.84 71.93 82.08 71.52 82.42 71.36 82.75 71.19 83.08 70.86 83.33 70.53 83.41 70.19 83.25 69.86 83.17 69.53 83.08 69.2 82.84 68.87 82.5 68.61 82.17 68.45 82.08 68.12 82.08 67.78 82.01 67.45 82.01 67.12 81.92 66.79 81.92 66.46 81.92 66.12 81.84 65.79 81.47 65.78 81.23 66.11 80.9 66.36 80.73 66.69 80.4 66.94 80.07 67.27 79.98 67.61 80.15 67.94 80.24 68.27 79.98 68.6 79.93 68.7" stroke-miterlimit="10" stroke-width=".28222" fill="none"/>
  <polyline id="polyline36" stroke="#000" points="74.04 75.41 73.87 75.83 73.79 76.24 73.71 76.58 73.71 76.91 73.54 77.24 73.38 77.57 73.12 77.9 73.04 78.23 72.96 78.57 72.96 78.9 73.04 79.23 73.04 79.56 73.04 79.89 72.96 80.31 72.79 80.65 72.62 80.98 72.46 81.39 72.21 81.72 72.05 82.05 71.72 82.22 71.38 82.55 71.38 82.97 71.46 83.3 71.63 83.63 71.72 83.96 71.55 84.3 71.22 84.3 70.89 84.3 70.55 84.3 70.22 84.04 69.89 84.04 69.56 83.8 69.23 83.63 68.89 83.54 68.56 83.71 68.23 83.63 67.9 83.54 67.57 83.54 67.24 83.63 66.9 83.88 66.57 83.96 66.24 83.63 65.91 83.47 65.58 83.38 65.24 83.47 64.91 83.47 64.58 83.54 64.41 83.88 64.41 84.21 64.58 84.54 64.66 84.87 64.49 85.2 64.16 85.37 63.83 85.53 63.5 85.62 63.5 85.95 63.5 86.29 63.5 86.62 63.5 86.95 63.16 86.95 62.83 86.86 62.5 86.7 62.09 86.7 61.76 86.62 61.43 86.45 61.09 86.36 60.76 86.36 60.43 86.36 60.1 86.36 59.77 86.2 59.43 85.87 59.1 85.7 58.77 85.62 58.44 85.53 58.11 85.46 57.78 85.37 57.44 85.12 57.11 84.96 56.95 84.63 56.78 84.3 56.61 83.96 56.36 83.63 56.45 83.3 56.52 82.97 56.45 82.64 56.69 81.97 56.78 81.64 56.86 81.31 57.08 81.11 57.41 80.94 57.74 80.94 58.07 81.28 58.41 81.36 58.74 81.2 59.07 80.87 59.4 80.54 59.73 80.2 60.15 80.04 60.49 80.04 60.82 80.04 61.15 79.87 61.48 79.62 61.65 79.29 61.73 78.95 61.65 78.62 61.32 78.62 60.98 78.62 60.65 78.46 60.49 78.12 60.4 77.79 60.4 77.46 60.65 77.13 60.73 76.8 60.4 76.47 60.07 76.3 59.73 76.13 59.4 76.13 59.07 76.13 58.74 76.06 58.41 75.8 58.41 75.47 58.57 75.14 58.9 74.89 59.24 74.89 59.57 74.89 59.9 74.89 60.23 74.97 60.56 74.97 60.73 74.64 60.82 74.31 61.15 74.31 61.48 74.31 61.81 74.4 62.15 74.14 62.31 73.81 62.64 73.64 62.98 73.64 63.31 73.4 63.64 73.31 63.97 73.4 64.16 73.76 64.49 73.92 64.75 74.25 65.08 74.51 65.41 74.51 65.82 74.42 66.15 74.18 66.24 73.84 66.57 73.68 66.9 73.92 66.9 74.25 66.9 74.59 66.98 74.92 67.15 75.25 67.48 75.5 67.81 75.41 67.9 75.08 68.23 75.01 68.56 75.01 68.89 75.08 69.23 75.17 69.56 75.17 69.89 75.41 70.22 75.67 70.55 75.67 70.89 75.75 71.22 75.83 71.55 75.83 71.88 75.83 72.21 75.67 72.46 75.34 72.7 75.34 73.71 75.34 74.04 75.17 74.04 75.41" stroke-miterlimit="10" stroke-width=".28222" fill="none"/>
  <polyline id="polyline38" stroke="#000" points="56.86 81.31 56.78 81.64 56.69 81.97 56.45 82.64 56.52 82.97 56.45 83.3 56.37 83.64 56.12 83.3 55.86 82.97 55.62 82.64 55.36 82.3 55.03 82.05 54.7 81.88 54.37 81.72 53.7 81.31 53.37 81.05 53.04 80.72 52.63 80.65 52.3 80.39 51.97 80.23 51.63 80.23 51.3 80.06 50.68 79.66 50.86 79.37 50.77 79.12 51.1 79.04 51.44 79.04 51.86 79.12 52.27 79.21 52.6 79.29 53.02 79.29 53.35 79.21 53.68 79.12 54.01 78.95 54.35 78.71 54.68 78.54 55.01 78.62 55.34 78.71 55.75 78.71 56.08 78.62 56.41 78.71 56.5 79.04 56.67 79.37 56.83 79.78 56.83 80.11 56.83 80.45 56.67 80.78 56.75 81.11 57.08 81.11 56.86 81.31" stroke-miterlimit="10" stroke-width=".28222" fill="none"/>
  <polyline id="polyline40" stroke="#000" points="81.42 77.41 81.18 77.07 81.09 76.74 81.09 76.41 80.92 76.08 80.59 76.08 80.26 76.17 79.93 76.41 79.59 76.33 79.43 76 79.35 75.67 79.18 75.34 78.85 75.17 78.52 75.17 78.35 75.5 78.43 75.83 78.02 76 77.69 76 77.36 75.75 77.19 75.41 77.1 75.08 76.94 74.75 76.61 74.51 76.27 74.59 75.94 74.51 75.7 74.18 75.37 74.01 74.95 73.92 74.78 73.84 74.78 74.18 74.62 74.51 74.28 74.84 74.04 75.17 74.04 75.41 73.87 75.83 73.79 76.24 73.71 76.58 73.71 76.91 73.54 77.24 73.38 77.57 73.12 77.9 73.04 78.23 72.96 78.57 72.96 78.9 73.04 79.23 73.04 79.56 73.04 79.89 72.96 80.31 72.79 80.65 72.62 80.98 72.46 81.39 72.21 81.72 72.05 82.05 72.13 82.3 72.13 82.64 72.29 82.97 72.46 83.3 72.62 83.63 72.79 83.96 73.12 84.04 73.54 83.96 73.87 83.63 74.21 83.3 74.54 83.3 74.95 83.38 75.28 83.38 75.53 83.05 75.7 82.71 76.03 82.47 76.36 82.55 76.7 82.64 77.1 82.47 77.36 82.14 77.6 81.81 77.93 81.48 78.02 81.14 78.1 80.81 78.1 80.39 78.02 80.06 77.86 79.73 77.86 79.32 78.1 78.99 78.43 78.66 78.69 78.32 78.69 77.99 79.02 77.9 79.26 78.23 79.59 78.57 79.59 78.9 79.59 79.23 79.59 79.56 79.68 79.89 79.68 80.23 79.68 80.56 80.01 80.65 80.35 80.98 80.51 81.31 80.84 81.39 81.09 81.05 81.18 80.72 81.25 80.39 81.34 80.06 81.34 79.73 81.25 79.4 81.18 79.06 81.09 78.73 81.09 78.4 81.09 78.07 81.01 77.74 81.25 77.41 81.42 77.41" stroke-miterlimit="10" stroke-width=".28222" fill="none"/>
  <polyline id="polyline42" stroke="#000" points="79.68 80.56 79.68 80.23 79.68 79.89 79.59 79.56 79.59 79.23 79.59 78.9 79.59 78.57 79.26 78.23 79.02 77.9 78.69 77.99 78.69 78.32 78.43 78.66 78.1 78.99 77.86 79.32 77.86 79.73 78.02 80.06 78.1 80.39 78.1 80.81 78.27 80.65 78.6 80.56 78.93 80.65 79.26 80.65 79.68 80.56" stroke-miterlimit="10" stroke-width=".28222" fill="none"/>
  <polyline id="polyline44" stroke="#000" points="79.68 80.56 80.01 80.65 80.35 80.98 80.51 81.31 80.84 81.39 81.01 81.64 81.01 81.97 81.01 82.3 81.25 82.71 81.18 83.05 81.18 83.38 81.18 83.71 81.18 84.04 80.84 84.13 80.51 84.3 80.18 84.46 79.85 84.79 79.52 84.79 79.26 84.46 78.93 84.3 78.6 84.04 78.27 83.88 77.93 83.54 77.6 83.54 77.27 83.38 77.1 83.05 77.03 82.71 77.1 82.47 77.36 82.14 77.6 81.81 77.93 81.48 78.02 81.14 78.06 80.82 78.27 80.65 78.6 80.56 78.93 80.65 79.26 80.65 79.68 80.56" stroke-miterlimit="10" stroke-width=".28222" fill="none"/>
  <polyline id="polyline46" stroke="#000" points="82.91 76.5 82.91 76.83 82.75 77.16 82.42 77.49 82.08 77.66 81.75 77.49 81.42 77.41 81.25 77.41 81.01 77.74 81.09 78.07 81.09 78.4 81.09 78.73 81.25 78.73 81.59 78.49 81.92 78.4 82.25 78.66 82.5 78.99 82.75 79.32 83.08 79.56 83.41 79.89 83.74 80.06 84.08 79.89 84.41 79.82 84.74 79.82 85.07 79.65 85.4 79.32 85.73 79.15 86.07 78.99 86.07 78.66 85.73 78.4 85.4 78.07 85.07 77.9 84.74 77.74 84.41 77.41 84.08 77.16 83.74 77.07 83.41 76.83 83.08 76.5 82.91 76.5" stroke-miterlimit="10" stroke-width=".28222" fill="none"/>
  <polyline id="polyline48" stroke="#000" points="70.38 50.7 69.22 50.7 68.22 49.45 67.89 49.53 67.56 49.61 67.22 49.61 66.98 49.28 66.89 48.95 66.56 48.87 66.15 48.71 65.82 48.45 65.56 48.12 65.4 47.79 65.07 47.62 64.73 47.46 64.33 47.38 63.99 47.21 63.66 47.05 63.33 47.05 63 47.05 62.67 47.05 62.33 47.12 62 47.29 61.67 47.38 61.81 47.77 62.64 48.76 62.55 51.08 60.98 51.58 58.57 51.34 56.25 53.49 55.92 54.9 56.17 55.4 56.25 55.65 55.25 56.15 54.51 57.14 54.35 59.05 54.18 61.46 53.76 62.36 54.18 62.2 54.51 62.03 54.84 61.87 55.18 61.7 55.25 61.37 55.09 61.04 54.84 60.71 54.75 60.37 54.75 60.04 55.09 59.8 55.42 59.71 55.75 59.8 56 60.13 56.08 60.46 55.75 60.79 55.51 61.13 55.42 61.46 55.34 61.79 55.34 62.12 55.34 62.45 55.67 62.45 55.84 62.12 55.84 61.79 55.92 61.46 56 61.13 56.34 60.87 56.67 61.04 56.75 61.37 56.67 61.7 56.5 62.03 56.41 62.36 56.41 62.7 56.5 63.03 56.58 63.36 56.91 63.28 57.24 63.03 57.33 62.7 57.5 62.36 57.83 62.03 58.16 61.87 58.49 61.95 58.83 62.2 58.99 62.53 58.99 62.86 58.9 63.19 58.83 63.53 58.66 63.86 58.57 64.19 58.24 64.19 57.91 64.19 57.66 64.52 57.83 64.85 57.83 65.18 57.5 65.44 57.17 65.44 56.83 65.27 56.5 65.27 56.34 65.6 56.17 65.94 56.08 66.27 55.92 66.6 55.84 66.93 55.67 67.26 55.51 67.6 55.42 67.93 55.42 68.26 55.58 68.59 55.92 68.92 56.25 69 56.58 68.92 56.91 68.76 57.24 68.67 57.66 68.76 58 68.83 58.33 68.83 58.66 68.76 58.99 68.76 59.32 68.76 59.66 68.67 59.99 68.42 60.65 67.93 60.82 67.6 60.98 67.26 60.9 66.93 60.73 66.6 60.73 66.27 60.98 65.94 61.32 65.85 61.65 65.85 61.98 65.94 62.31 66.1 62.64 66.18 62.98 66.18 63.31 66.18 63.64 66.1 63.97 65.94 64.3 65.6 64.55 65.18 64.88 64.94 65.3 64.78 65.71 64.61 66.04 64.61 66.37 64.85 66.54 65.18 66.87 65.52 66.96 65.52 67.12 65.18 67.29 64.85 67.53 64.52 67.53 64.19 67.53 63.86 67.53 63.53 67.7 63.19 67.7 62.86 67.53 62.53 67.7 62.2 67.95 61.87 67.7 61.53 67.37 61.2 67.04 61.2 66.7 61.46 66.37 61.79 66.04 62.03 65.71 62.12 65.46 62.12 63.81 60.13 63.72 59.71 63.64 59.38 63.64 58.88 63.38 58.64 63.38 57.55 64.64 56.39 66.54 54.99 67.87 53.99 69.36 51.58 70.38 50.7" stroke-miterlimit="10" stroke-width=".28222" fill="none"/>
  <polyline id="polyline50" stroke="#000" points="75.28 33.2 75.61 33.44 75.94 33.7 76.2 34.03 76.27 34.36 76.36 34.69 76.11 35.02 76.2 35.36 76.2 35.69 76.27 36.02 76.44 36.35 76.44 36.68 76.53 37.02 76.61 37.35 76.61 37.68 76.61 38.01 76.94 38.34 77.1 38.67 77.03 39.01 77.36 39.08 77.69 39.25 77.86 39.58 78.19 39.84 78.52 39.91 78.85 39.84 79.18 40 79.52 40.17 79.85 40.41 80.18 40.58 80.51 40.66 80.84 40.74 81.18 40.83 81.51 41 81.84 41.16 82.17 41.41 82.5 41.49 82.84 41.66 83.17 41.66 83.5 41.66 83.91 41.74 84.24 41.74 84.57 41.74 84.9 41.66 85.24 41.74 85.4 42.07 85.57 42.4 85.9 42.49 86.32 42.32 86.65 42.07 86.98 42.07 87.06 42.4 87.06 42.73 87.15 43.06 87.15 43.4 86.9 43.73 86.65 44.06 86.49 44.39 86.32 44.72 86.16 45.06 86.16 45.39 86.16 45.72 86.07 46.05 85.9 46.38 85.57 46.38 85.33 46.05 84.99 45.72 84.66 45.64 84.57 45.97 84.57 46.31 84.5 46.64 84.41 46.97 84.41 47.3 84.5 47.63 84.57 48.04 84.57 48.37 84.74 48.71 84.83 49.04 84.9 49.37 84.9 49.7 84.9 50.03 84.9 50.36 84.9 50.7 84.83 51.03 84.83 51.36 84.74 51.69 84.74 52.02 84.74 52.35 84.66 52.69 84.66 53.02 84.57 53.35 84.57 53.68 84.5 54.01 84.5 54.35 84.5 54.68 84.57 55.01 84.66 55.34 84.66 55.67 84.66 56.09 84.83 56.76 84.9 57.09 84.9 57.42 84.9 57.75 85.07 58.16 85.16 58.49 85.24 58.82 85.16 59.16 84.9 59.49 84.83 59.82 84.57 60.15 84.33 60.48 84.33 60.82 84.5 61.15 84.5 61.48 84.41 61.81 84.41 62.14 84.57 62.47 84.74 62.81 84.74 63.14 84.41 63.39 84.08 63.39 83.83 63.72 83.58 64.06 83.25 64.22 82.91 64.13 82.67 63.8 82.34 63.64 82.14 63.45 82.14 63.12 81.97 62.78 81.64 62.45 81.31 62.29 80.98 62.12 80.65 62.12 80.31 62.2 79.98 62.29 79.57 62.29 79.24 62.29 78.82 62.29 78.49 62.29 78.16 62.2 77.82 61.95 77.66 61.62 77.49 61.29 77.16 60.96 76.83 60.71 76.5 60.54 76.09 60.63 75.75 60.54 75.42 60.46 75 60.37 74.67 60.21 74.34 60.13 74.17 59.8 74.5 59.54 74.84 59.47 75 59.13 74.84 58.8 74.5 58.71 74.17 58.88 74.01 58.55 74.34 58.38 74.26 58.05 73.93 58.14 73.6 58.31 73.6 57.97 73.76 57.64 73.43 57.39 73.18 57.06 73.43 56.72 73.76 56.65 74.17 56.72 74.5 56.72 74.76 56.39 74.76 56.06 74.84 55.65 74.92 55.32 75 54.99 75.26 54.66 75.59 54.57 75.92 54.49 76.25 54.24 76.42 53.9 76.16 53.57 75.83 53.33 75.75 52.66 75.75 52.24 75.75 51.91 75.75 51.58 75.67 51.25 75.42 50.92 75.17 50.59 75.42 50.25 75.75 50.18 75.92 49.84 76.25 49.59 76.58 49.51 76.91 49.51 77.24 49.42 77.66 49.42 77.74 49.09 77.82 48.76 77.82 48.43 77.82 48.1 77.9 47.77 78.07 47.43 78.23 47.1 78.57 46.94 78.9 46.94 79.32 47.02 79.65 47.02 79.98 46.77 80.22 46.44 80.56 46.11 80.81 45.77 80.98 45.44 81.05 45.03 80.65 44.87 80.65 44.54 80.65 44.2 80.65 43.87 80.72 43.54 80.72 43.21 80.72 42.88 80.65 42.54 80.39 42.21 80.06 42.12 79.73 42.12 79.39 42.05 79.06 41.96 78.73 41.79 78.4 41.55 78.07 41.38 77.66 41.22 77.4 40.89 77.07 40.72 76.75 40.47 76.5 40.13 76.5 39.8 76.42 39.47 76.42 39.14 76.09 38.9 75.75 38.73 75.42 38.56 75.33 38.23 75.33 37.9 75 37.57 74.92 37.24 75.26 36.98 75.26 36.65 75.26 36.32 75.09 35.99 74.92 35.65 74.92 35.32 74.84 34.99 74.59 34.66 74.26 34.49 74.17 34.16 74.26 33.83 74.34 33.5 74.67 33.25 75 33 75.28 33.2" stroke-miterlimit="10" stroke-width=".28222" fill="none"/>
  <polyline id="polyline52" stroke="#000" points="85.16 64.89 85.33 65.22 85.66 65.46 85.9 65.79 86.16 66.12 86.49 66.29 86.65 66.62 86.9 66.95 86.82 67.29 86.49 67.37 86.16 67.29 85.99 66.95 85.82 66.62 85.66 66.29 85.57 65.96 85.49 65.63 85.33 65.29 85.16 64.89" stroke-miterlimit="10" stroke-width=".28222" fill="none"/>
  <polyline id="polyline54" stroke="#000" points="105.98 89.85 106.31 89.52 106.81 89.35 107.07 89.02 107.14 88.69 107.07 88.35 106.81 88.02 106.57 87.69 106.31 87.36 105.98 87.03 105.65 86.78 105.41 86.45 105.08 86.12 104.82 85.79 104.49 85.46 104.32 85.12 104.32 84.79 103.91 84.46 103.58 84.46 103.25 84.63 102.92 84.7 102.59 84.7 102.25 84.63 101.92 84.46 101.83 84.13 101.67 83.8 101.5 83.47 101.26 83.13 101.17 82.8 100.84 82.55 100.51 82.38 100.17 82.05 99.84 82.05 99.43 81.88 99.01 81.72 98.68 81.72 98.35 81.72 98.02 81.64 97.68 81.55 97.27 81.48 96.94 81.48 96.61 81.39 96.28 81.55 96.61 81.72 96.94 81.88 96.69 82.22 96.36 82.14 95.95 82.22 95.62 82.05 95.53 81.72 95.36 81.39 95.19 81.05 94.86 80.89 94.62 80.56 94.29 80.31 94.03 79.89 93.7 79.73 93.46 79.4 93.13 79.23 92.87 78.9 92.71 78.57 92.63 78.23 92.46 77.9 92.21 77.57 92.13 77.24 92.13 76.74 91.96 76.41 91.8 76.08 91.63 75.75 91.47 75.41 91.21 75.08 91.05 74.75 90.88 74.42 90.71 74.09 90.47 73.76 90.22 73.42 89.88 73.18 89.55 72.85 89.22 72.59 88.89 72.35 88.72 72.02 88.48 71.69 88.31 71.36 87.98 71.02 87.73 70.69 87.39 70.36 87.15 70.03 86.81 69.71 87.15 69.7 86.98 69.36 86.82 69.03 86.73 68.7 86.73 68.37 86.73 68.04 86.82 67.71 87.15 67.37 87.39 67.04 87.32 66.71 87.23 66.38 86.9 66.12 86.56 65.88 86.23 65.55 85.99 65.22 85.73 64.89 85.49 64.55 85.4 64.22 85.24 63.89 85.16 63.56 84.99 63.23 84.74 63.14 84.41 63.39 84.08 63.39 83.83 63.72 83.58 64.06 83.25 64.22 82.91 64.13 82.67 63.8 82.34 63.64 82.14 63.45 81.97 63.78 81.73 64.11 81.64 64.44 81.56 64.78 81.56 65.11 81.56 65.44 81.47 65.78 81.84 65.79 81.92 66.12 81.92 66.46 81.92 66.79 82.01 67.12 82.01 67.45 82.08 67.78 82.08 68.12 82.17 68.45 82.5 68.61 82.84 68.87 83.08 69.2 83.17 69.53 83.25 69.86 83.41 70.19 83.33 70.53 83.08 70.86 82.75 71.19 82.42 71.36 82.08 71.52 81.84 71.93 81.67 72.26 81.92 72.59 82.25 72.59 82.58 72.59 82.91 72.59 83.25 72.52 83.58 72.35 83.74 72.02 84 71.69 84 71.36 84.24 71.02 84.5 71.19 84.66 70.86 84.99 70.53 85.33 70.77 85.33 71.1 85.33 71.43 85.4 71.76 85.82 72.02 86.16 72.02 86.32 72.35 86.16 72.68 85.82 72.76 85.57 73.09 85.57 73.42 85.57 73.76 85.66 74.09 85.82 74.42 86.16 74.59 86.49 74.67 86.82 74.42 86.9 74.09 87.23 73.76 87.56 73.84 87.89 74.01 88.22 74.09 88.31 74.42 88.22 74.75 88.15 75.08 87.98 75.5 87.81 75.83 87.65 76.17 87.56 76.5 87.48 76.83 87.32 77.16 87.23 77.49 87.23 77.83 87.32 78.16 87.73 78.49 88.06 78.66 88.39 78.73 88.72 78.73 89.05 78.66 89.22 78.99 89.05 79.32 88.72 79.4 88.39 79.65 88.22 80.39 88.22 80.72 88.06 81.05 87.98 81.39 87.98 81.72 87.98 82.05 88.15 82.38 88.48 82.55 88.81 82.64 89.05 82.97 89.22 83.3 89.55 83.38 89.88 83.21 90.22 82.88 90.55 82.97 90.8 83.3 91.05 83.63 91.21 83.3 91.21 82.97 91.47 82.64 91.8 82.97 92.04 83.3 92.3 83.63 92.46 83.96 92.71 84.3 93.04 84.46 93.37 84.63 93.7 84.7 94.03 84.87 94.36 84.87 94.7 84.87 95.03 84.87 95.36 84.96 95.53 85.29 95.69 85.62 95.69 85.95 95.69 86.29 95.45 86.62 95.36 86.62 95.36 87.28 95.69 87.86 96.11 88.61 96.61 88.61 97.11 88.35 97.52 87.86 98.02 87.52 98.77 86.78 99.1 88.52 100.34 89.27 100.84 89.94 105.82 89.94 105.98 89.85" stroke-miterlimit="10" stroke-width=".28222" fill="none"/>
  <polyline id="polyline56" stroke="#000" points="81.25 78.73 81.59 78.49 81.92 78.4 82.25 78.66 82.5 78.99 82.75 79.32 83.08 79.56 83.41 79.89 83.74 80.06 84.08 79.89 84.41 79.82 84.74 79.82 85.07 79.65 85.4 79.32 85.73 79.15 86.07 78.99 86.07 78.66 85.73 78.4 85.4 78.07 85.07 77.9 84.74 77.74 84.41 77.41 84.08 77.16 83.74 77.07 83.41 76.83 83.08 76.5 82.91 76.5 83.08 75.83 83.17 75.5 83.25 75.17 83.33 74.84 83.5 74.51 83.58 74.18 83.67 73.84 83.83 73.51 84.08 73.18 84.33 72.85 84.57 72.52 84.83 72.1 84.83 71.76 84.83 71.43 84.57 71.1 84.66 70.86 84.99 70.53 85.33 70.77 85.33 71.1 85.33 71.43 85.4 71.76 85.82 72.02 86.16 72.02 86.32 72.35 86.16 72.68 85.82 72.76 85.57 73.09 85.57 73.42 85.57 73.76 85.66 74.09 85.82 74.42 86.16 74.59 86.49 74.67 86.82 74.42 86.9 74.09 87.23 73.76 87.56 73.84 87.89 74.01 88.22 74.09 88.31 74.42 88.22 74.75 88.15 75.08 87.98 75.5 87.81 75.83 87.65 76.17 87.56 76.5 87.48 76.83 87.32 77.16 87.23 77.49 87.23 77.83 87.32 78.16 87.73 78.49 88.06 78.66 88.39 78.73 88.72 78.73 89.05 78.66 89.22 78.99 89.05 79.32 88.72 79.4 88.39 79.65 88.22 80.39 88.22 80.72 88.06 81.05 87.98 81.39 87.98 81.72 87.98 82.05 88.15 82.38 88.48 82.55 88.81 82.64 89.05 82.97 89.22 83.3 89.55 83.38 89.88 83.21 90.22 82.88 90.55 82.97 90.8 83.3 91.05 83.88 90.88 84.21 90.55 84.37 90.22 84.63 89.88 84.79 89.55 85.04 89.22 85.29 88.89 85.12 88.48 85.29 88.15 85.46 87.81 85.62 87.48 85.87 87.32 86.2 86.98 86.12 86.65 85.79 86.49 85.46 86.4 85.12 86.32 84.79 85.99 84.79 85.66 85.04 85.33 85.37 85.4 85.7 85.73 86.03 85.9 86.36 85.66 86.7 85.33 86.78 84.99 86.7 84.83 86.36 84.5 86.2 84.16 86.2 83.83 86.2 83.5 86.2 83.17 85.87 82.84 85.62 82.5 85.53 82.17 85.53 81.84 85.62 81.42 85.79 81.09 85.62 80.76 85.87 80.42 85.95 80.09 85.87 79.76 85.7 79.52 85.37 79.35 85.04 79.52 84.79 79.85 84.79 80.18 84.46 80.51 84.3 80.84 84.13 81.18 84.04 81.18 83.71 81.18 83.38 81.18 83.05 81.25 82.71 81.01 82.3 81.01 81.97 81.01 81.64 80.84 81.39 81.09 81.05 81.18 80.72 81.25 80.39 81.34 80.06 81.34 79.73 81.25 79.4 81.18 79.06 81.09 78.73 81.25 78.73" stroke-miterlimit="10" stroke-width=".28222" fill="none"/>
  <polyline id="polyline58" stroke="#000" points="83.5 86.2 83.17 85.87 82.84 85.62 82.5 85.53 82.17 85.53 81.84 85.62 81.42 85.79 81.09 85.62 80.76 85.87 80.42 85.95 80.09 85.87 79.76 85.7 79.52 85.37 79.35 85.04 79.52 84.79 79.26 84.46 78.93 84.3 78.6 84.04 78.27 83.88 77.93 83.54 77.6 83.54 77.27 83.38 77.1 83.05 77.03 82.71 77.1 82.47 76.7 82.64 76.36 82.55 76.03 82.47 75.7 82.71 75.53 83.05 75.28 83.38 74.95 83.38 74.54 83.3 74.21 83.3 73.87 83.63 73.54 83.96 73.12 84.04 72.79 83.96 72.62 83.63 72.46 83.3 72.29 82.97 72.13 82.64 72.13 82.3 72.05 82.05 71.72 82.22 71.38 82.55 71.38 82.97 71.46 83.3 71.63 83.63 71.72 83.96 71.55 84.3 71.22 84.3 70.89 84.3 70.55 84.3 70.22 84.04 69.89 84.04 69.56 83.8 69.23 83.63 68.89 83.54 68.56 83.71 68.23 83.63 67.9 83.54 67.57 83.54 67.24 83.63 66.9 83.88 66.57 83.96 66.24 83.63 65.91 83.47 65.58 83.38 65.24 83.47 64.91 83.47 64.58 83.54 64.41 83.88 64.41 84.21 64.58 84.54 64.66 84.87 64.49 85.2 64.16 85.37 63.83 85.53 63.5 85.62 63.5 85.95 63.5 86.29 63.5 86.62 63.48 86.84 63.75 86.86 64.08 86.7 64.41 86.62 64.75 86.78 65.08 87.12 65.41 87.36 65.58 87.69 65.82 88.02 66.15 88.28 66.48 88.61 66.81 88.85 67.15 89.18 67.48 89.35 67.81 89.52 68.14 89.77 68.47 90.1 68.73 90.43 69.06 90.68 69.39 90.84 69.72 91.01 70.06 91.1 70.39 91.17 70.72 91.34 71.13 91.43 71.46 91.43 71.79 91.51 72.13 91.67 72.46 91.84 72.79 92 73.12 92.09 73.54 92.26 73.87 92.5 74.21 92.67 74.62 92.76 74.87 93.09 75.2 93.33 75.61 93.5 75.94 93.5 76.27 93.5 76.61 93.5 76.94 93.5 77.27 93.59 77.69 93.59 78.02 93.66 78.35 93.83 78.69 93.99 79.02 94.08 79.35 94.16 79.68 94.16 80.01 94.33 80.35 94.42 80.76 94.49 81.09 94.58 81.42 94.91 81.59 95.24 81.92 95.49 82.25 95.58 82.67 95.65 82.91 95.32 83.08 94.99 83.25 94.66 83.33 94.33 83.67 94.16 84 93.83 84.33 93.66 84.57 93.33 84.74 93 84.74 92.67 84.57 92.34 84.74 92 84.5 91.67 84.24 91.34 83.91 91.1 83.58 90.84 83.41 90.51 83.25 90.18 83.08 89.85 83.08 89.52 82.75 89.18 82.67 88.85 82.75 88.52 82.91 88.19 82.91 87.86 82.91 87.52 82.84 87.19 82.91 86.86 83.25 86.86 83.58 86.78 83.67 86.45 83.5 86.2" stroke-miterlimit="10" stroke-width=".28222" fill="none"/>
  <polyline id="polyline60" stroke="#000" points="103.99 95.24 104.32 95.24 104.65 95.24 104.99 95.32 105.24 94.99 105.32 94.66 105.08 94.33 104.74 93.99 104.74 93.66 104.82 93.33 104.82 93 104.82 92.67 104.82 92.34 105.08 92 105.41 91.67 105.57 91.34 105.65 91.01 105.74 90.68 105.74 90.35 105.82 90.01 105.82 89.94 100.84 89.94 100.34 89.27 99.1 88.52 98.77 86.78 98.02 87.52 97.52 87.86 97.11 88.35 96.61 88.61 96.11 88.61 95.69 87.86 95.36 87.28 95.36 86.62 95.45 86.62 95.69 86.29 95.69 85.95 95.69 85.62 95.53 85.29 95.36 84.96 95.03 84.87 94.7 84.87 94.36 84.87 94.03 84.87 93.7 84.7 93.37 84.63 93.04 84.46 92.71 84.3 92.46 83.96 92.3 83.63 92.04 83.3 91.8 82.97 91.47 82.64 91.21 82.97 91.21 83.3 91.05 83.63 91.05 83.88 90.88 84.21 90.55 84.37 90.22 84.63 89.88 84.79 89.55 85.04 89.22 85.29 88.89 85.12 88.48 85.29 88.15 85.46 87.81 85.62 87.48 85.87 87.32 86.2 86.98 86.12 86.65 85.79 86.49 85.46 86.4 85.12 86.32 84.79 85.99 84.79 85.66 85.04 85.33 85.37 85.4 85.7 85.73 86.03 85.9 86.36 85.66 86.7 85.33 86.78 84.99 86.7 84.83 86.36 84.5 86.2 84.16 86.2 83.83 86.2 83.5 86.2 83.67 86.45 83.58 86.78 83.25 86.86 82.91 86.86 82.84 87.19 82.91 87.52 82.91 87.86 82.91 88.19 82.75 88.52 82.67 88.85 82.75 89.18 83.08 89.52 83.08 89.85 83.25 90.18 83.41 90.51 83.58 90.84 83.91 91.1 84.24 91.34 84.5 91.67 84.74 92 84.57 92.34 84.74 92.67 84.74 93 84.57 93.33 84.33 93.66 84 93.83 83.67 94.16 83.33 94.33 83.25 94.66 83.08 94.99 82.91 95.32 82.75 95.49 83 95.82 83.33 95.99 83.67 96.07 84 96.15 84.33 96.24 84.74 96.41 85.07 96.57 85.4 96.74 85.73 96.9 86.07 97.07 86.4 97.07 86.73 97.07 87.06 97.07 87.39 97.4 87.73 97.48 88.06 97.48 88.39 97.48 88.72 97.48 89.05 97.48 89.39 97.64 89.72 97.73 90.05 97.9 90.38 98.14 90.71 98.31 91.05 98.4 91.38 98.4 91.71 98.47 92.04 98.64 92.37 98.73 92.79 98.81 93.13 98.81 93.46 98.81 93.79 98.73 94.2 98.47 94.53 98.31 94.86 98.06 95.19 97.9 95.53 97.81 95.86 97.57 96.19 97.48 96.52 97.31 96.85 96.98 97.19 96.82 97.52 96.74 97.85 96.57 98.18 96.57 98.51 96.57 98.68 96.24 98.85 95.91 99.18 95.74 99.51 95.49 99.84 95.49 100.17 95.41 100.59 95.32 100.93 95.41 101.34 95.41 101.34 95.08 101 94.99 100.67 94.82 100.67 94.49 100.84 94.16 101.17 94.16 101.5 94.33 101.5 94.66 101.59 94.99 101.92 94.82 102.25 94.82 102.66 94.58 103 94.49 103.16 94.91 102.75 95.08 102.42 95.08 102.59 95.41 102.92 95.49 103.25 95.49 103.58 95.58 103.91 95.74 104.25 95.91 104.58 95.99 104.91 96.07 105.24 96.15 105.57 96.15 105.24 95.82 104.91 95.74 104.58 95.58 104.25 95.49 103.91 95.41 103.58 95.32 103.99 95.24" stroke-miterlimit="10" stroke-width=".28222" fill="none"/>
  <polyline id="polyline62" stroke="#000" points="106.9 87.95 107.23 87.86 107.56 87.78 107.9 87.61 107.97 87.28 108.06 86.95 107.9 86.62 107.9 86.29 107.9 85.95 107.97 85.62 108.23 85.29 108.56 85.2 108.89 85.2 109.22 85.37 109.56 85.62 109.72 85.95 109.72 86.36 109.8 86.7 109.8 87.03 109.89 87.36 110.13 87.69 110.46 87.78 110.8 87.86 111.22 88.02 111.55 88.19 111.88 88.02 112.05 87.69 112.29 87.36 112.54 87.03 112.79 86.7 112.71 86.36 112.79 86.03 113.12 85.79 113.45 85.46 113.62 85.12 113.95 84.96 114.37 84.96 115.03 84.96 115.36 85.12 115.7 85.29 116.03 85.62 116.36 85.95 116.69 86.29 117.02 86.53 117.1 86.86 117.36 87.19 117.69 87.28 118.02 87.36 118.35 87.61 118.35 87.95 118.43 88.28 120.68 88.02 120.42 84.87 120.18 84.7 120.09 84.21 117.93 84.54 116.86 84.63 116.53 84.54 116.19 84.37 115.86 84.21 115.36 84.04 115.03 83.96 114.7 83.8 114.37 83.54 114.04 83.38 113.87 83.05 113.78 82.71 113.45 82.55 113.37 82.22 113.21 81.88 112.95 81.55 112.54 81.39 112.29 81.05 111.96 80.98 111.55 81.39 111.22 81.64 110.88 81.97 110.55 82.22 110.22 82.22 109.89 82.22 109.56 82.3 109.22 82.38 108.8 82.38 108.39 82.47 108.06 82.55 107.73 82.55 107.4 82.64 107.07 82.71 106.73 82.71 106.31 82.8 106.24 83.13 106.57 82.97 106.9 83.05 106.65 83.38 106.31 83.54 106.07 83.88 105.74 84.04 105.41 84.13 105.08 83.88 104.74 84.21 104.41 84.21 104.08 84.37 103.91 84.46 104.32 84.79 104.32 85.12 104.49 85.46 104.82 85.79 105.08 86.12 105.41 86.45 105.65 86.78 105.98 87.03 106.31 87.36 106.57 87.69 106.81 88.02 106.9 87.95" stroke-miterlimit="10" stroke-width=".28222" fill="none"/>
  <polyline id="polyline64" stroke="#000" points="118.43 88.28 118.35 87.95 118.35 87.61 118.02 87.36 117.69 87.28 117.36 87.19 117.1 86.86 117.02 86.53 116.69 86.29 116.36 85.95 116.03 85.62 115.7 85.29 115.36 85.12 115.03 84.96 114.37 84.96 113.95 84.96 113.62 85.12 113.45 85.46 113.12 85.79 112.79 86.03 112.71 86.36 112.79 86.7 112.54 87.03 112.29 87.36 112.05 87.69 111.88 88.02 111.55 88.19 111.22 88.02 110.8 87.86 110.46 87.78 110.13 87.69 109.89 87.36 109.8 87.03 109.8 86.7 109.72 86.36 109.72 85.95 109.56 85.62 109.22 85.37 108.89 85.2 108.56 85.2 108.23 85.29 107.97 85.62 107.9 85.95 107.9 86.29 107.9 86.62 108.06 86.95 107.97 87.28 107.9 87.61 107.56 87.78 107.23 87.86 106.9 87.95 106.81 88.02 107.07 88.35 107.14 88.69 107.07 89.02 106.81 89.35 106.31 89.52 105.98 89.85 105.82 89.94 105.82 90.01 105.74 90.35 105.74 90.68 105.65 91.01 105.57 91.34 105.41 91.67 105.08 92 104.82 92.34 104.82 92.67 104.82 93 104.82 93.33 104.74 93.66 104.74 93.99 105.08 94.33 105.32 94.66 105.24 94.99 104.99 95.32 105.16 95.43 105.45 95.55 106.24 95.91 106.57 96.24 106.24 96.07 105.9 96.07 106.31 96.41 106.65 96.57 106.98 96.82 107.31 97.07 107.64 97.24 107.4 96.9 107.14 96.57 106.9 96.24 107.23 96.41 107.56 96.57 107.9 96.74 108.23 97.07 108.56 97.31 108.89 97.64 109.22 97.98 109.56 98.23 109.8 98.56 110.13 98.89 110.39 99.23 110.63 99.56 110.8 99.89 111.13 100.13 111.46 100.22 111.79 100.46 112.12 100.72 112.54 100.96 112.88 101.05 113.21 101.05 113.54 100.8 113.87 100.55 114.2 100.22 114.54 99.89 114.87 99.56 115.11 99.23 115.2 98.81 117.36 94.75 123.91 94.08 124.07 93.75 124 93.42 123.91 93.09 124 92.76 124.07 92.42 123.74 92.34 123.41 92.17 123.08 92 123 91.67 122.83 91.34 122.5 91.01 122.25 90.68 121.91 90.51 121.58 90.35 121.17 90.1 121.01 89.77 120.68 90.01 120.26 89.68 119.92 89.44 119.59 89.18 119.26 88.85 118.93 88.52 118.6 88.28 118.43 88.28" stroke-miterlimit="10" stroke-width=".28222" fill="none"/>
  <polyline id="polyline66" stroke="#000" points="116.94 79.65 116.6 79.89 116.27 80.15 115.94 80.23 115.61 80.48 115.94 80.56 116.27 80.48 116.6 80.39 116.94 80.15 117.19 79.82 116.94 79.65" stroke-miterlimit="10" stroke-width=".28222" fill="none"/>
  <polyline id="polyline68" stroke="#000" points="20.18 22.58 19.85 22.58 19.51 22.75 19.43 23.08 19.35 23.41 19.35 23.74 19.26 24.08 19.26 24.41 19.35 24.73 19.68 24.98 20.01 25.15 20.26 24.82 20.34 24.48 20.34 24.15 20.51 23.82 20.51 23.49 20.42 23.16 20.59 22.83 20.18 22.58" stroke-miterlimit="10" stroke-width=".28222" fill="none"/>
  <polyline id="polyline70" stroke="#000" points="134.95 62.64 134.62 62.56 134.28 62.47 133.95 62.31 133.62 62.14 133.29 62.07 132.7 61.98 132.37 62.23 132.04 62.4 131.71 62.56 131.37 62.64 131.04 62.73 130.63 62.81 130.21 62.89 129.88 63.23 129.55 63.56 129.22 63.72 128.89 63.89 128.55 63.97 128.22 63.97 127.89 64.06 127.56 64.13 127.23 64.22 126.89 64.3 126.56 64.39 126.23 64.47 125.9 64.63 125.57 64.72 125.23 64.89 124.9 64.96 124.57 65.13 124.24 65.22 123.91 65.29 123.57 65.46 123.24 65.72 122.91 65.96 122.58 66.21 122.25 66.38 121.91 66.62 121.75 66.95 121.58 67.29 121.51 67.62 121.42 67.95 121.67 68.12 121.75 68.54 121.75 68.7 121.91 69.11 121.91 69.28 122.25 69.36 122.5 69.44 122.67 69.7 123.08 69.77 123.5 69.77 128.72 75.58 134.69 67.54 135.69 65.46 135.36 62.73 134.95 62.64" stroke-miterlimit="10" stroke-width=".28222" fill="none"/>
  <polyline id="polyline72" stroke="#000" points="116.94 79.65 116.6 79.89 116.27 80.15 115.94 80.23 115.61 80.48 115.94 80.56 116.27 80.48 116.6 80.39 116.94 80.15 117.19 79.82 116.94 79.65" stroke-miterlimit="10" stroke-width=".28222" fill="none"/>
  <polyline id="polyline74" stroke="#000" points="120.42 84.87 120.18 84.7 120.09 84.21 117.93 84.54 116.86 84.63 116.53 84.54 116.19 84.37 115.86 84.21 115.36 84.04 115.03 83.96 114.7 83.8 114.37 83.54 114.04 83.38 113.87 83.05 113.78 82.71 113.45 82.55 113.37 82.22 113.21 81.88 112.95 81.55 112.54 81.39 112.29 81.05 111.96 80.98 112.62 80.72 112.95 80.65 113.28 80.56 113.62 80.56 113.95 80.56 114.37 80.39 114.7 80.23 115.03 80.23 115.28 80.56 115.2 80.89 115.53 81.48 115.7 81.81 116.03 81.81 116.27 81.48 116.6 81.48 116.94 81.55 117.1 81.22 117.43 80.98 117.77 80.81 118.1 80.72 118.52 80.65 118.43 80.31 118.52 79.98 118.35 79.65 118.02 79.56 117.69 79.65 117.36 79.65 117.52 79.32 117.85 79.23 118.19 78.99 118.43 78.66 118.76 78.4 119.09 78.07 119.43 77.74 119.76 77.49 120.09 77.24 120.34 76.91 120.68 76.58 120.75 76.24 120.75 75.91 120.84 75.25 120.84 74.92 120.75 74.59 120.75 74.25 121.01 73.92 121.25 73.59 121.25 73.26 121.42 72.93 121.58 72.59 121.58 72.19 121.58 71.85 121.58 71.52 121.58 71.19 121.42 70.86 121.51 70.53 121.25 70.19 121.25 69.86 121.34 69.53 121.51 69.2 121.42 68.87 121.42 68.54 121.67 68.12 121.75 68.54 121.75 68.7 121.91 69.11 121.91 69.28 122.25 69.36 122.5 69.44 122.67 69.7 123.08 69.77 123.5 69.77 128.72 75.58 129.64 83.88 120.59 84.96 120.42 84.87" stroke-miterlimit="10" stroke-width=".28222" fill="none"/>
  <polyline id="polyline76" stroke="#000" points="128.72 75.58 134.69 67.54 135.69 65.46 135.36 62.73 135.61 62.73 135.94 62.81 136.28 62.89 136.61 62.89 136.94 62.81 137.18 62.47 137.35 62.14 137.02 61.98 136.69 62.07 136.35 62.14 136.02 62.23 136.19 61.9 136.52 61.81 136.85 61.73 137.18 61.65 137.52 61.65 137.85 61.9 137.94 62.23 138.18 62.64 138.1 62.97 138.35 63.3 138.51 63.64 138.6 63.97 138.6 64.3 138.6 64.63 138.6 64.96 138.51 65.46 138.51 65.79 138.43 66.12 138.27 66.46 138.01 66.79 137.77 67.12 137.52 67.45 137.27 67.78 137.11 68.12 136.94 68.45 136.85 68.78 136.77 69.11 136.44 69.61 136.35 69.94 136.44 70.27 136.52 70.6 136.61 70.94 136.61 71.27 136.19 71.93 135.86 72.26 135.78 72.59 135.78 72.93 136.11 73.18 136.44 73.01 136.77 72.93 136.94 73.26 136.94 73.59 136.69 73.92 136.35 74.18 136.02 74.34 135.86 74.67 136.02 75.01 136.35 75.01 136.69 74.84 136.77 75.17 136.69 75.5 136.69 75.83 136.61 76.17 136.61 76.5 136.52 76.83 136.44 77.16 136.35 77.49 136.35 77.83 136.28 78.16 136.35 78.57 136.35 78.9 136.44 79.23 136.44 79.56 136.28 79.89 136.19 80.23 136.11 80.56 135.86 80.89 135.52 80.72 135.45 80.39 135.36 80.06 135.11 79.73 134.78 79.56 134.45 79.32 134.45 78.99 134.53 78.66 134.53 78.32 134.45 77.99 134.36 77.66 134.2 77.33 133.86 77.49 133.79 77.83 133.7 78.16 133.53 78.49 133.46 78.82 133.46 79.15 133.37 79.48 133.03 79.65 132.7 79.73 132.37 79.82 132.04 79.98 131.8 80.31 131.63 80.65 131.54 80.98 131.46 81.31 131.37 81.64 131.3 81.97 131.13 82.3 130.97 82.64 130.88 82.97 130.55 83.05 130.3 82.71 129.88 82.55 129.55 82.55 128.72 75.58" stroke-miterlimit="10" stroke-width=".28222" fill="none"/>
  <polyline id="polyline78" stroke="#000" points="135.52 82.8 135.52 82.47 135.61 82.14 135.86 81.81 135.86 81.48 135.84 81.17 135.61 81.48 135.52 81.81 135.36 82.14 135.19 82.47 135.52 82.8" stroke-miterlimit="10" stroke-width=".28222" fill="none"/>
  <polyline id="polyline80" stroke="#000" points="139.43 67.12 139.1 67.04 138.77 67.21 138.51 67.54 138.43 67.87 138.35 68.2 138.51 68.54 138.84 68.61 139.01 68.28 139.18 67.95 139.34 67.62 139.43 67.12" stroke-miterlimit="10" stroke-width=".28222" fill="none"/>
  <polyline id="polyline82" stroke="#000" points="14.88 20.17 14.7 20.41 14.7 20.71 14.82 21 14.87 21.29 15.16 21.54 15.44 21.79 15.56 22.12 15.78 22.41 15.9 22.7 15.94 22.99 16.27 23.11 16.27 22.74 16.27 22.45 16.27 22.16 16.06 21.87 15.86 21.58 15.78 21.29 15.65 20.96 15.56 20.7 15.37 20.55 15.07 20.38 14.88 20.17" stroke-miterlimit="10" stroke-width=".28222" fill="none"/>
  <polyline id="polyline84" stroke="#000" points="17.36 28.8 11.37 28.12 11.54 27.79 11.78 27.46 11.78 27.13 11.78 26.8 11.95 26.46 11.95 26.13 11.95 25.8 11.95 25.47 11.95 25.14 11.7 24.81 11.37 24.56 11.04 24.31 10.8 23.98 10.63 23.64 10.46 23.31 10.3 22.98 10.13 22.65 10.04 22.32 9.96 21.98 9.62 21.65 9.29 21.32 9.05 20.82 8.79 20.49 8.46 20.24 8.13 20.07 7.8 19.74 7.47 19.5 7.13 19.16 6.8 19 6.47 18.67 6.14 18.41 5.97 18.08 5.73 17.75 5.73 17.42 5.64 16.75 5.64 16.42 5.64 16.09 5.64 15.76 5.64 15.43 5.64 15.09 5.56 14.76 5.4 14.43 5.31 14.1 5.23 13.77 4.9 13.44 4.82 13.1 4.9 12.77 4.99 12.44 5.31 12.53 5.31 12.2 4.99 11.94 5.06 11.62 5.06 11.29 4.82 10.96 4.49 11.12 4.23 10.79 4.15 10.46 4.15 10.13 4.31 9.79 4.31 9.45 4.23 9.12 4.07 8.79 3.81 8.46 3.65 8.13 3.41 7.8 3.07 7.46 2.98 7.13 2.98 6.8 3.07 6.47 3.41 6.39 3.41 6.06 3.41 5.73 3.07 5.4 2.82 5.06 2.74 4.73 2.65 4.4 2.58 3.98 2.49 3.65 2.32 3.32 2.24 2.98 2.08 2.65 2 2.32 2 2 11.78 2.58 12.04 2.91 12.04 3.24 11.78 3.57 11.54 3.9 11.21 3.98 10.8 4.4 10.54 4.73 10.54 5.06 10.46 5.4 10.46 5.73 10.21 6.06 10.04 6.39 10.3 6.72 10.63 6.97 10.8 7.3 10.87 7.63 10.8 7.96 10.71 8.29 10.46 8.62 10.3 8.96 10.46 9.29 10.46 9.62 10.38 9.95 10.3 10.28 10.3 10.62 10.38 10.95 10.46 11.28 10.8 11.61 10.87 12.03 10.71 12.36 10.54 12.69 10.54 13.03 10.71 13.36 10.8 13.69 10.71 14.6 10.63 14.93 10.54 15.26 10.54 15.59 10.63 15.92 10.63 16.26 10.63 16.6 10.87 16.93 10.96 17.26 10.96 17.59 11.21 17.93 11.54 18.26 11.87 18.5 12.2 18.76 12.44 19.09 12.7 19.42 12.94 19.74 13.27 20.07 13.44 20.4 13.61 20.74 13.86 21.07 14.19 21.23 14.27 21.56 14.27 21.9 14.36 22.23 14.44 22.56 14.44 22.89 14.44 23.22 14.6 23.56 14.77 23.22 15.1 23.22 15.19 23.56 15.19 23.89 15.35 24.22 15.69 24.05 16.02 24.22 16.02 24.55 16.02 24.88 16.1 25.21 16.1 25.55 16.18 25.88 16.43 26.21 16.68 26.54 17.26 26.54 17.35 26.87 17.35 27.21 17.35 27.54 17.35 27.96 17.35 28.29 17.42 28.62 17.36 28.8" stroke-miterlimit="10" stroke-width=".28222" fill="none"/>
  <polyline id="polyline86" stroke="#000" points="17.42 29.28 17.35 29.69 17.35 30.03 17.51 30.36 17.84 30.45 18.84 31.53 19.01 31.86 19.01 32.18 19.08 32.51 19.25 32.85 19.25 33.18 19.34 33.51 19.58 33.84 19.91 34.01 20.33 34.17 20.33 34.5 20 34.5 20 34.84 20.25 35.17 20.41 35.5 20.5 35.83 20.25 36.16 20.17 36.5 20.41 36.83 20.67 37.16 21 37.41 21 37.08 21 36.75 20.91 36.42 20.74 36.09 20.74 35.75 20.91 35.42 21.24 35.59 21.41 35.92 21.58 36.25 21.83 36.58 21.92 36.92 22.08 37.25 22.25 37.58 22.58 37.82 22.58 38.15 22.49 38.49 22.25 38.82 22.16 39.15 22.25 39.48 22.33 39.81 22.41 40.15 22.25 40.48 22.33 40.81 22.58 41.14 22.58 41.47 22.66 41.8 22.91 42.14 22.91 42.47 23.08 42.8 23.41 43.05 23.74 43.3 23.74 43.63 23.82 43.96 23.82 44.3 23.91 44.64 23.91 44.97 23.98 45.3 24.24 45.63 24.73 46.63 24.98 46.96 25.06 47.29 24.89 47.62 24.65 47.95 24.41 48.45 24.57 48.78 24.65 49.11 24.73 49.45 24.73 49.78 24.81 50.11 25.15 50.44 25.39 50.77 25.72 50.94 26.05 51.18 26.47 51.18 26.55 50.85 26.55 50.52 26.81 50.19 27.14 50.44 27.3 50.77 27.47 51.11 27.64 51.44 27.71 51.77 27.8 52.1 28.05 52.43 28.38 52.68 28.71 52.84 29.04 53.17 29.13 53.51 29.04 53.84 29.04 54.17 29.37 54.42 29.79 54.59 30.13 54.67 30.29 55 30.29 55.33 30.29 55.66 30.29 55.99 30.29 56.33 30.04 56.66 29.87 56.99 29.71 57.32 29.37 57.49 29.04 57.74 28.88 58.15 28.54 58.23 28.21 58.39 27.88 58.65 27.55 58.65 27.3 58.32 27.05 57.98 27.05 57.65 26.81 57.32 26.72 56.99 26.72 56.58 26.64 56.16 26.55 55.83 26.39 55.5 26.39 55.16 26.31 54.83 25.72 54.17 25.15 53.91 24.89 53.58 24.57 53.34 24.32 53.01 24.07 52.68 23.82 52.34 23.58 52.01 23.41 51.68 23.08 51.35 22.91 51.02 22.58 50.76 22.25 50.52 21.92 50.28 21.5 50.02 21.33 49.69 21 49.36 20.74 49.03 20.41 48.69 20.08 48.45 19.91 48.12 19.5 47.79 19.42 47.46 19.25 47.12 18.92 47.04 18.59 46.79 18.59 46.46 18.67 46.13 18.34 45.96 18.25 46.29 18.25 46.63 18.25 46.96 18.25 47.29 18.01 47.62 17.68 47.37 17.59 47.04 17.51 46.7 17.59 46.37 17.84 46.04 17.84 45.71 17.76 45.38 18.09 45.04 18.34 44.71 18.59 44.38 18.59 44.05 18.59 43.72 18.67 43.39 19.01 43.13 18.92 42.8 19.01 42.47 19.08 42.14 19.25 41.8 19.25 41.47 19.08 41.14 19.08 40.81 19.01 40.48 18.84 40.15 18.75 39.81 18.51 39.48 18.25 39.15 17.92 38.91 17.51 38.82 17.18 38.74 16.85 38.49 16.52 38.15 16.18 37.91 16.02 37.58 15.76 37.25 15.52 36.92 15.1 36.5 14.93 36.16 14.77 35.83 14.77 35.5 15.02 35.17 15.19 34.84 15.27 34.5 14.93 34.59 14.77 34.92 14.52 35.26 14.19 35.33 13.86 35.09 13.77 34.76 13.69 34.43 13.36 34.5 13.44 34.84 13.44 35.17 13.27 35.5 12.94 35.59 12.61 35.5 12.28 35.17 12.2 34.84 12.11 34.5 11.95 34.17 11.63 33.93 11.29 33.84 10.96 33.68 10.87 33.34 10.63 33.01 10.21 32.77 9.88 32.68 9.55 32.51 9.21 32.18 9.13 31.85 9.29 31.52 9.05 31.19 8.79 30.85 8.46 30.61 8.13 30.28 7.89 29.95 7.55 29.62 7.22 29.28 6.97 28.95 7.06 28.62 7.96 28.7 8.3 28.95 8.63 29.03 8.96 29.03 9.29 29.03 9.71 29.03 10.04 29.03 10.38 28.86 10.71 28.7 11.04 28.45 11.37 28.12 17.36 28.8 17.42 29.28" stroke-miterlimit="10" stroke-width=".28222" fill="none"/>
  <polyline id="polyline88" stroke="#000" points="23.66 40.32 23.33 40.49 23 40.65 22.83 40.99 22.92 41.32 23.25 41.48 23.42 41.15 23.66 40.82 23.83 40.49 23.66 40.32" stroke-miterlimit="10" stroke-width=".28222" fill="none"/>
  <polyline id="polyline90" stroke="#000" points="24.99 45.81 24.9 46.14 24.9 46.47 25.07 46.8 25.4 47.13 25.66 46.8 25.57 46.47 25.32 46.14 25.24 45.81 24.99 45.81" stroke-miterlimit="10" stroke-width=".28222" fill="none"/>
  <polyline id="polyline92" stroke="#000" points="26.23 48.79 26.23 49.13 26.23 49.46 26.56 49.7 26.65 49.37 26.56 49.04 26.23 48.79" stroke-miterlimit="10" stroke-width=".28222" fill="none"/>
  <polyline id="polyline94" stroke="#000" points="28.48 50.2 28.39 50.53 28.48 50.86 28.64 51.19 28.89 51.53 29.05 51.19 28.97 50.86 28.89 50.53 28.64 50.2 28.48 50.2" stroke-miterlimit="10" stroke-width=".28222" fill="none"/>
  <metadata>
    <rdf:RDF>
      <cc:Work>
        <dc:format>image/svg+xml</dc:format>
        <dc:type rdf:resource="http://purl.org/dc/dcmitype/StillImage"/>
        <cc:license rdf:resource="http://creativecommons.org/licenses/publicdomain/"/>
        <dc:publisher>
          <cc:Agent rdf:about="http://openclipart.org/">
            <dc:title>Openclipart</dc:title>
          </cc:Agent>
        </dc:publisher>
        <dc:title>mexique politique</dc:title>
        <dc:date>2008-05-31T15:49:08</dc:date>
        <dc:description>america, america, cartography, cartography, clip art, clipart, geography, geography, image, map, map, media, mexico, mexico, outline, outline, png, public domain, svg, </dc:description>
        <dc:source>http://openclipart.org/detail/17215/mexique-politique-by-laurent</dc:source>
        <dc:creator>
          <cc:Agent>
            <dc:title>laurent</dc:title>
          </cc:Agent>
        </dc:creator>
        <dc:subject>
          <rdf:Bag>
            <rdf:li>america</rdf:li>
            <rdf:li>cartography</rdf:li>
            <rdf:li>clip art</rdf:li>
            <rdf:li>clipart</rdf:li>
            <rdf:li>geography</rdf:li>
            <rdf:li>image</rdf:li>
            <rdf:li>map</rdf:li>
            <rdf:li>media</rdf:li>
            <rdf:li>mexico</rdf:li>
            <rdf:li>outline</rdf:li>
            <rdf:li>png</rdf:li>
            <rdf:li>public domain</rdf:li>
            <rdf:li>svg</rdf:li>
          </rdf:Bag>
        </dc:subject>
      </cc:Work>
      <cc:License rdf:about="http://creativecommons.org/licenses/publicdomain/">
        <cc:permits rdf:resource="http://creativecommons.org/ns#Reproduction"/>
        <cc:permits rdf:resource="http://creativecommons.org/ns#Distribution"/>
        <cc:permits rdf:resource="http://creativecommons.org/ns#DerivativeWorks"/>
      </cc:License>
    </rdf:RDF>
  </metadata>
</svg>
