<svg xmlns="http://www.w3.org/2000/svg" width="18.996" height="18.403" viewBox="0 0 18.996 18.403">
  <g id="_4486285281582823592_1_" data-name="4486285281582823592 (1)" transform="translate(-0.845 -2.819)">
    <path id="Path_4182" data-name="Path 4182" d="M18.725,29.2a.4.4,0,1,0-.459.645,2.288,2.288,0,0,1,.42.437l-8.342,5.688L2.035,30.308a3.113,3.113,0,0,1,.443-.473.4.4,0,1,0-.494-.618,3.077,3.077,0,0,0-1.138,2.09V41.6a1.981,1.981,0,0,0,1.979,1.979H17.863A1.981,1.981,0,0,0,19.842,41.6V31.307A2.778,2.778,0,0,0,18.725,29.2Z" transform="translate(0 -22.354)" fill="#e2e2e2"/>
    <path id="Path_4183" data-name="Path 4183" d="M21.175,8.36a.594.594,0,0,0,.594-.594V4.006H32.454v3.76a.594.594,0,1,0,1.187,0V3.857A1.04,1.04,0,0,0,32.6,2.819H21.62a1.04,1.04,0,0,0-1.038,1.038V7.766a.594.594,0,0,0,.594.594Z" transform="translate(-16.768 0)" fill="#e2e2e2"/>
  </g>
</svg>
