<svg xmlns="http://www.w3.org/2000/svg" width="14.192" height="14.469" viewBox="0 0 14.192 14.469">
  <path id="noun-shopping-4841956" d="M145.56,74.382h-8.667a2.723,2.723,0,0,1-2.669-3.428l1.465-7.079c.148-.748.973-.608,1.534-.614-.083,1.326-1.212,6.673-1.5,8.039h0a1.164,1.164,0,0,0,1.174,1.549h8.667a1.164,1.164,0,0,0,1.174-1.549l-1.319-6.4-.023-.1h-.752c.078.576-.009,1.335-.752,1.342a.769.769,0,0,1-.767-.767c.041-1.394-.394-3.9-1.895-3.9-.759,0-1.335.66-1.641,1.787h2.485a5.886,5.886,0,0,1,.269,1.534h-2.991c.022.575-.028,1.335-.782,1.342-1.293-.089-.631-2.115-.552-2.876.974-4.463,5.454-4.462,6.428,0h.79c.563,0,1.387-.132,1.534.614l1.465,7.08h0a2.723,2.723,0,0,1-2.669,3.429Zm-2.631-3.309a1.534,1.534,0,0,0,1.534-1.534V67.519a.37.37,0,0,0-.37-.37h-5.611a.371.371,0,0,0-.37.37v2.021a1.534,1.534,0,0,0,1.534,1.534Z" transform="translate(-134.131 -59.914)" fill="#fd9f00" opacity="0.5"/>
</svg>
