<svg xmlns="http://www.w3.org/2000/svg" width="13.328" height="12.205" viewBox="0 0 13.328 12.205">
  <g id="noun-list-969174" transform="translate(-468 -564.86)">
    <path id="Path_23547" data-name="Path 23547" d="M145.488,131.074a2.744,2.744,0,1,1-2.744-2.744,2.744,2.744,0,0,1,2.744,2.744" transform="translate(335.84 436.556)" fill="#acacac"/>
    <path id="Path_23552" data-name="Path 23552" d="M145.488,131.074a2.744,2.744,0,1,1-2.744-2.744,2.744,2.744,0,0,1,2.744,2.744" transform="translate(335.84 443.221)" fill="#acacac"/>
    <path id="Path_23549" data-name="Path 23549" d="M145.488,247.744A2.744,2.744,0,1,1,142.744,245a2.744,2.744,0,0,1,2.744,2.744" transform="translate(328 319.86)" fill="#acacac"/>
    <path id="Path_23551" data-name="Path 23551" d="M145.488,364.414a2.744,2.744,0,1,1-2.744-2.744,2.744,2.744,0,0,1,2.744,2.744" transform="translate(328 209.907)" fill="#acacac"/>
  </g>
</svg>
