<svg xmlns="http://www.w3.org/2000/svg" width="14.225" height="13.747" viewBox="0 0 14.225 13.747">
  <g id="slow-icon" transform="translate(-0.008 0.007)">
    <path id="Path_23349" data-name="Path 23349" d="M1.637,2.982l.041-.059-1,.141A.584.584,0,0,1,.243,2.95a.591.591,0,0,1-.229-.391.584.584,0,0,1,.113-.438.591.591,0,0,1,.391-.229L3.1,1.529h.007a.331.331,0,0,1,.049,0h0a.585.585,0,0,1,.418.157.592.592,0,0,1,.188.409c.035.887.068,1.775.1,2.662a.584.584,0,0,1-.157.421.592.592,0,0,1-.41.188H3.288A.584.584,0,0,1,2.867,5.2a.59.59,0,0,1-.188-.409c-.015-.392-.028-.785-.043-1.177-.086.124-.17.257-.255.409a5.816,5.816,0,0,0-.614,1.617,5.731,5.731,0,0,0-.109,1.72,5.628,5.628,0,0,0,.4,1.654,5.519,5.519,0,0,0,.878,1.445h0q.207.247.43.464t.468.416a5.923,5.923,0,0,0,1.137.721,5.622,5.622,0,0,0,1.249.431l.14.03v1.2l-.21-.039a6.782,6.782,0,0,1-1.606-.516A7.092,7.092,0,0,1,3.1,12.264q-.283-.227-.55-.49t-.509-.551A6.726,6.726,0,0,1,.48,7.465a6.965,6.965,0,0,1,.872-4.018,5.166,5.166,0,0,1,.286-.465ZM9.991,13.272a6.733,6.733,0,0,1-1.455.431l-.207.037v-1.2l.142-.029a5.6,5.6,0,0,0,1.067-.331,5.666,5.666,0,0,0,.993-.544l.122-.082.845.845-.17.122a6.938,6.938,0,0,1-1.337.75Zm3.775-3.761a6.729,6.729,0,0,1-.754,1.335l-.122.168-.845-.845.085-.122a5.58,5.58,0,0,0,.545-.99,5.51,5.51,0,0,0,.332-1.076l.029-.142h1.2l-.036.207a6.623,6.623,0,0,1-.431,1.464Zm.276-4.433c.054.2.1.39.135.586l.039.21h-1.2l-.03-.14c-.03-.14-.065-.278-.1-.412s-.085-.272-.135-.406a6.911,6.911,0,0,0-.281-.652,6.2,6.2,0,0,0-.34-.6l-.076-.12.849-.849.12.178a7.566,7.566,0,0,1,.461.784,8.076,8.076,0,0,1,.374.85q.108.288.188.575ZM10.337.557a6.114,6.114,0,0,1,1.029.6l.17.122-.846.846-.12-.082a5.025,5.025,0,0,0-1.642-.725c-.133-.032-.274-.06-.421-.082s-.284-.037-.425-.046-.294-.013-.441-.009-.3.014-.452.031h0A.592.592,0,0,1,7.061.032c.184-.02.369-.032.555-.037s.365,0,.541.01.353.03.523.056.35.061.527.1a6.331,6.331,0,0,1,1.131.392Z" transform="translate(0)" fill="#858381"/>
  </g>
</svg>
