<?xml version="1.0" encoding="utf-8"?>
<!-- Created by UniConvertor 2.0rc5 (https://sk1project.net/) -->
<svg xmlns="http://www.w3.org/2000/svg" height="42.0px" width="43.0px" version="1.1" xmlns:xlink="http://www.w3.org/1999/xlink" id="d0a6dc86-de39-11ed-9313-0242ac130005">

<g>
	<g>
		<g>
			<path style="fill:#ffedd7;" d="M 21.0,0.0 C 9.404,0.0 0.0,9.404 0.0,21.0 L 0.0,21.0 C 0.0,32.596 9.404,42.0 21.0,42.0 L 22.0,42.0 C 33.596,42.0 43.0,32.596 43.0,21.0 L 43.0,21.0 C 43.0,9.404 33.596,0.0 22.0,0.0 L 21.0,0.0 Z" />
			<path style="fill:#ffffff;" d="M 21.0,0.0 C 9.404,0.0 0.0,9.404 0.0,21.0 L 0.0,21.0 C 0.0,32.596 9.404,42.0 21.0,42.0 L 22.0,42.0 C 33.596,42.0 43.0,32.596 43.0,21.0 L 43.0,21.0 C 43.0,9.404 33.596,0.0 22.0,0.0 L 21.0,0.0 Z" />
		</g>
		<g>
			<path style="fill-opacity:0.4;fill:#f3ba6f;" d="M 21.5,11.0 C 27.0219,11.0 31.5,15.4781 31.5,21.0 31.5,26.5219 27.0219,31.0 21.5,31.0 15.9781,31.0 11.5,26.5219 11.5,21.0 11.5063,15.4806 15.9806,11.0063 21.4994,11.0" />
			<path style="fill:#f3ba6f;" d="M 20.057,16.779 C 20.0572,16.779 20.0574,16.779 20.0576,16.779 20.2639,16.779 20.4508,16.8627 20.586,16.998 L 24.073,20.468 C 24.2089,20.6041 24.293,20.792 24.293,20.9995 24.293,21.207 24.2089,21.3949 24.073,21.531 L 20.586,25.003 C 20.4514,25.1326 20.2681,25.2124 20.0662,25.2124 19.652,25.2124 19.3162,24.8765 19.3162,24.4624 19.3162,24.2592 19.397,24.0749 19.5282,23.9398 L 22.481,21.0 19.528,18.06 C 19.3919,17.9242 19.3077,17.7364 19.3077,17.529 19.3077,17.1151 19.6431,16.7794 20.057,16.779" />
		</g>
	</g>
</g>
</svg>