<svg id="Group_2859" data-name="Group 2859" xmlns="http://www.w3.org/2000/svg" width="12.952" height="11.818" viewBox="0 0 12.952 11.818">
  <path id="Path_9014" data-name="Path 9014" d="M103.082,75.514v1.177H90.13V75.514a1.122,1.122,0,0,1,1.112-1.134h.305v.872a.344.344,0,0,0,.349.349h.7a.344.344,0,0,0,.349-.349V74.38h2.943v.872a.344.344,0,0,0,.349.349h.7a.344.344,0,0,0,.349-.349V74.38h2.944v.872a.344.344,0,0,0,.349.349h.7a.344.344,0,0,0,.349-.349V74.38h.305a1.131,1.131,0,0,1,1.156,1.134Z" transform="translate(-90.13 -73.595)" fill="#fff"/>
  <path id="Path_9015" data-name="Path 9015" d="M90.125,192.5v6.977a1.117,1.117,0,0,0,1.112,1.112h10.684a1.117,1.117,0,0,0,1.112-1.112V192.5Zm12.036,6.977a.219.219,0,0,1-.218.218H91.259a.218.218,0,0,1-.218-.218v-6.083h11.142v6.083Z" transform="translate(-90.125 -188.772)" fill="#fff"/>
  <path id="Path_9016" data-name="Path 9016" d="M158.245,44.624h.7a.094.094,0,0,0,.087-.087v-1.57a.094.094,0,0,0-.087-.087h-.7a.094.094,0,0,0-.087.087v1.57C158.136,44.581,158.18,44.624,158.245,44.624Z" transform="translate(-156.457 -42.88)" fill="#fff"/>
  <path id="Path_9017" data-name="Path 9017" d="M332.587,44.624h.7a.094.094,0,0,0,.087-.087v-1.57a.094.094,0,0,0-.087-.087h-.7a.094.094,0,0,0-.087.087v1.57A.094.094,0,0,0,332.587,44.624Z" transform="translate(-326.46 -42.88)" fill="#fff"/>
  <path id="Path_9018" data-name="Path 9018" d="M506.62,42.962v1.57a.094.094,0,0,0,.087.087h.7a.094.094,0,0,0,.087-.087v-1.57a.094.094,0,0,0-.087-.087h-.7A.094.094,0,0,0,506.62,42.962Z" transform="translate(-496.241 -42.875)" fill="#fff"/>
  <path id="Path_9019" data-name="Path 9019" d="M230.028,443.62l.283.283-.523.2c-.022,0-.044,0-.022-.022v-.022Z" transform="translate(-226.278 -433.634)" fill="#fff"/>
  <path id="Path_9020" data-name="Path 9020" d="M245.2,423.5l.589.567-.371.131-.414-.371Z" transform="translate(-241.145 -414.015)" fill="#fff"/>
  <path id="Path_9021" data-name="Path 9021" d="M257.441,403.38l.894.85-.392.131-.7-.654Z" transform="translate(-253.08 -394.396)" fill="#fff"/>
  <path id="Path_9022" data-name="Path 9022" d="M269.7,384.12l1.2,1.112-.392.131-1-.938Z" transform="translate(-265.035 -375.616)" fill="#fff"/>
  <path id="Path_9023" data-name="Path 9023" d="M281.941,364l1.5,1.4-.392.131-1.308-1.221Z" transform="translate(-276.97 -355.998)" fill="#fff"/>
  <path id="Path_9024" data-name="Path 9024" d="M294.2,343.88l1.81,1.679-.392.131-1.614-1.483Z" transform="translate(-288.924 -336.379)" fill="#fff"/>
  <path id="Path_9025" data-name="Path 9025" d="M307.294,324.62l2.093,1.941-.371.153-1.9-1.788Z" transform="translate(-301.713 -317.599)" fill="#fff"/>
  <path id="Path_9026" data-name="Path 9026" d="M319.571,303.62h.022l1.81,2.246-2.028-1.9Z" transform="translate(-313.662 -297.122)" fill="#fff"/>
  <path id="Path_9027" data-name="Path 9027" d="M363.539,286.12l.305.022a2.527,2.527,0,0,1-.72,1.243A3.143,3.143,0,0,0,363.539,286.12Z" transform="translate(-356.322 -280.058)" fill="#fff"/>
  <path id="Path_9028" data-name="Path 9028" d="M380.188,339.788l.044-.283a2.542,2.542,0,0,0-1.352.436A2.942,2.942,0,0,1,380.188,339.788Z" transform="translate(-371.684 -332.113)" fill="#fff"/>
  <path id="Path_9029" data-name="Path 9029" d="M370.3,305.38l.218.283-1.265.676Z" transform="translate(-362.294 -298.839)" fill="#fff"/>
  <path id="Path_9030" data-name="Path 9030" d="M368.712,245.737l-.109.174a.041.041,0,0,0,0,.065l.131.174c.022.044,0,.087-.044.087l-.218-.065a.08.08,0,0,0-.065.022l-.109.174a.047.047,0,0,1-.087-.022v-.218a.047.047,0,0,0-.044-.044l-.2-.065a.062.062,0,0,1,0-.109l.2-.065a.047.047,0,0,0,.044-.044v-.218a.059.059,0,0,1,.087-.044l.131.174a.08.08,0,0,0,.065.022l.2-.065C368.69,245.649,368.733,245.693,368.712,245.737Z" transform="translate(-361.014 -240.482)" fill="#fff"/>
  <path id="Path_9031" data-name="Path 9031" d="M440.445,334.106l-.109.174a.041.041,0,0,0,0,.065l.131.174c.022.044,0,.087-.044.087l-.2-.065a.08.08,0,0,0-.065.022l-.109.174a.047.047,0,0,1-.087-.022V334.5a.047.047,0,0,0-.044-.044l-.2-.065a.062.062,0,0,1,0-.109l.2-.065a.047.047,0,0,0,.044-.044v-.218a.059.059,0,0,1,.087-.044l.131.174a.08.08,0,0,0,.065.022l.2-.065C440.445,334.019,440.488,334.063,440.445,334.106Z" transform="translate(-430.982 -326.649)" fill="#fff"/>
  <path id="Path_9032" data-name="Path 9032" d="M418.625,276.383l-.109.174a.041.041,0,0,0,0,.065l.131.174c.022.044,0,.109-.065.087l-.218-.065a.08.08,0,0,0-.065.022l-.109.174a.047.047,0,0,1-.087-.022v-.218a.047.047,0,0,0-.044-.044l-.218-.065a.062.062,0,0,1,0-.109l.2-.087a.047.047,0,0,0,.044-.044v-.218a.059.059,0,0,1,.087-.044l.131.174a.08.08,0,0,0,.065.022l.2-.087C418.6,276.3,418.647,276.34,418.625,276.383Z" transform="translate(-409.642 -270.344)" fill="#fff"/>
</svg>
